<?xml version="1.0" standalone="no"?>
<!DOCTYPE svg PUBLIC "-//W3C//DTD SVG 20010904//EN"
 "http://www.w3.org/TR/2001/REC-SVG-20010904/DTD/svg10.dtd">
<svg version="1.0" xmlns="http://www.w3.org/2000/svg"
 width="724.000000pt" height="724.000000pt" viewBox="0 0 724.000000 724.000000"
 preserveAspectRatio="xMidYMid meet">
<metadata>
Created by potrace 1.14, written by Peter Selinger 2001-2017
</metadata>
<g transform="translate(0.000000,724.000000) scale(0.100000,-0.100000)"
fill="#000000" stroke="none">
<path d="M3609 7236 c-2 -3 -37 -7 -77 -9 -40 -3 -75 -7 -78 -10 -3 -3 7 -29
21 -58 53 -108 135 -321 135 -349 0 -16 5 -32 10 -35 13 -8 13 -40 0 -63 -5
-9 -16 -37 -24 -62 -8 -25 -27 -76 -41 -115 -14 -38 -32 -89 -40 -113 -7 -24
-18 -48 -23 -55 -5 -7 -17 -35 -26 -63 -9 -29 -25 -59 -36 -69 -18 -17 -20
-16 -39 26 -32 69 -71 174 -71 190 0 8 -4 19 -9 25 -5 5 -23 47 -41 94 -17 47
-40 108 -51 136 -11 28 -23 69 -26 90 -3 22 -11 50 -19 64 -20 40 -60 148 -89
243 l-27 87 -92 0 c-50 0 -96 -4 -103 -8 -9 -5 -6 -24 11 -72 40 -109 56 -151
76 -193 11 -23 20 -47 20 -54 0 -8 27 -93 60 -191 34 -97 104 -305 156 -462
52 -157 99 -294 104 -305 5 -11 12 -31 15 -45 4 -14 15 -47 25 -75 10 -27 31
-90 45 -139 14 -48 29 -86 32 -82 3 3 23 54 43 113 21 59 50 140 65 178 15 39
33 90 40 115 22 73 57 163 72 185 15 22 83 234 83 259 0 9 4 16 8 16 12 0 81
-156 94 -210 5 -25 16 -58 24 -75 7 -16 29 -75 49 -130 20 -55 40 -109 44
-120 23 -55 42 -107 66 -180 44 -131 49 -145 60 -142 16 5 40 64 69 167 26 90
77 241 96 285 5 11 14 40 21 65 6 25 19 65 29 90 9 25 23 70 30 100 7 30 21
73 30 95 10 22 20 49 23 60 3 11 15 45 27 75 28 73 100 292 100 307 0 6 7 24
15 40 8 15 24 59 35 97 12 38 29 87 40 110 10 22 21 55 24 71 3 17 8 40 12 51
5 21 2 22 -58 23 -35 0 -84 5 -110 9 -25 5 -51 6 -57 3 -6 -4 -15 -27 -20 -52
-5 -24 -21 -82 -36 -129 -49 -155 -66 -214 -84 -286 -10 -39 -23 -79 -29 -90
-12 -22 -101 -278 -109 -311 -3 -13 -9 -23 -14 -23 -5 0 -9 -7 -9 -15 0 -8
-10 -36 -21 -61 -25 -51 -29 -48 -55 31 -9 28 -22 64 -30 82 -8 17 -14 38 -14
47 0 9 -9 25 -20 36 -11 11 -20 26 -20 33 0 14 -26 89 -64 186 -30 74 -31 95
-12 133 8 14 19 43 26 65 7 21 18 47 24 58 7 11 25 56 41 100 15 44 38 106 51
137 13 32 24 60 24 63 0 3 -42 5 -93 5 -108 0 -111 -2 -151 -92 -14 -32 -29
-58 -35 -58 -5 0 -15 17 -22 38 -16 50 -49 112 -59 112 -5 0 -15 2 -22 5 -8 3
-16 4 -19 1z"/>
<path d="M2408 6833 c-34 -5 -41 -25 -24 -71 16 -42 55 -176 96 -332 16 -58
33 -119 40 -136 l11 -31 72 23 c40 12 115 35 167 49 52 15 101 29 109 31 9 3
12 14 7 36 -3 17 -7 33 -9 34 -2 3 -103 -24 -202 -53 -81 -23 -85 -23 -99 22
-32 103 -55 183 -61 219 -3 21 -10 46 -15 55 -5 9 -18 49 -30 89 -13 39 -25
71 -29 71 -3 -1 -18 -4 -33 -6z"/>
<path d="M4766 6808 c-42 -91 -99 -254 -155 -438 -22 -74 -20 -78 51 -99 24
-8 77 -24 118 -37 95 -30 106 -30 114 2 4 15 6 28 4 29 -12 12 -170 55 -179
49 -7 -4 -9 -3 -5 4 3 6 -3 14 -15 17 -11 4 -19 12 -16 18 2 7 12 40 23 74 18
61 20 63 52 63 19 0 65 -10 103 -21 39 -12 72 -19 75 -16 3 2 6 17 7 32 2 27
-2 30 -86 59 -100 34 -96 27 -67 136 20 70 30 77 87 58 132 -45 164 -52 174
-37 5 8 9 24 9 35 0 22 -38 41 -135 66 -22 6 -47 14 -56 18 -9 5 -32 12 -52
15 -33 6 -36 5 -51 -27z m34 -528 c0 -5 -2 -10 -4 -10 -3 0 -8 5 -11 10 -3 6
-1 10 4 10 6 0 11 -4 11 -10z"/>
<path d="M1998 6683 c-104 -51 -118 -61 -118 -83 0 -15 4 -30 9 -35 14 -15
171 -360 171 -376 0 -8 9 -25 20 -39 11 -14 20 -31 20 -39 0 -9 8 -12 23 -8
31 7 246 102 258 114 13 13 -9 63 -29 63 -8 0 -48 -16 -89 -35 -119 -56 -113
-57 -153 27 -19 40 -36 76 -38 79 -1 4 12 12 30 19 34 14 150 69 156 74 1 2
-2 15 -7 30 -13 34 -34 33 -113 -4 -99 -47 -99 -47 -153 82 l-15 38 92 46 c51
25 95 48 97 50 8 8 -19 54 -31 54 -7 0 -66 -26 -130 -57z"/>
<path d="M5254 6644 c-14 -38 -149 -332 -190 -412 l-42 -82 25 -20 c26 -21 63
-27 63 -11 0 5 18 49 41 98 41 90 120 262 145 320 8 18 19 35 24 38 17 11 12
62 -7 68 -10 2 -26 8 -35 12 -13 5 -20 1 -24 -11z"/>
<path d="M5564 6441 c-54 -21 -74 -39 -91 -78 -28 -69 -12 -115 89 -250 22
-28 42 -68 45 -88 5 -32 2 -40 -18 -56 -36 -28 -95 -24 -141 7 -42 30 -78 81
-78 111 0 38 -54 63 -70 32 -27 -50 44 -180 118 -218 97 -49 186 -45 239 11
26 27 28 36 28 107 0 55 -4 82 -15 93 -8 8 -26 28 -39 43 -96 113 -109 150
-70 199 17 22 28 26 70 26 86 0 129 -38 129 -115 0 -25 5 -35 20 -39 11 -3 29
-9 40 -12 18 -5 20 -1 20 41 0 89 -40 140 -143 184 -57 24 -77 25 -133 2z"/>
<path d="M1510 6391 c-31 -3 -77 -19 -105 -34 -77 -43 -91 -56 -80 -71 39 -50
162 -235 172 -256 3 -8 35 -54 69 -102 34 -48 64 -93 66 -99 5 -15 105 49 142
93 53 61 69 111 64 207 -4 77 -7 91 -36 133 -73 106 -160 145 -292 129z m111
-81 c57 -16 102 -52 126 -100 32 -65 39 -125 19 -166 -17 -36 -93 -124 -107
-124 -9 0 -199 285 -227 342 -2 3 16 18 40 32 46 28 90 32 149 16z"/>
<path d="M1109 6142 c-27 -28 -160 -146 -180 -160 -11 -7 -19 -17 -19 -22 0
-5 57 -73 128 -150 70 -78 153 -173 186 -211 32 -39 64 -69 71 -67 7 2 49 35
92 74 43 40 93 85 112 101 l33 29 -24 28 c-18 22 -29 27 -46 22 -12 -4 -22
-13 -22 -21 0 -14 -68 -75 -83 -75 -5 0 -20 -14 -35 -32 l-26 -31 -58 63 c-33
36 -54 68 -50 75 4 6 36 38 72 70 36 33 66 62 68 67 6 12 -32 57 -48 57 -8 0
-44 -29 -80 -64 -35 -36 -69 -65 -74 -65 -13 0 -106 99 -106 113 0 7 34 46 76
88 l76 77 -17 26 c-20 30 -24 31 -46 8z"/>
<path d="M6040 6074 c-19 -8 -46 -30 -59 -49 -20 -30 -23 -42 -17 -87 8 -56
37 -131 62 -159 20 -22 30 -110 15 -137 -9 -18 -21 -22 -58 -22 -78 0 -143 69
-143 152 0 43 -45 93 -60 68 -10 -15 -14 -61 -10 -115 1 -16 16 -48 33 -70 84
-111 187 -152 265 -105 86 53 94 151 22 287 -48 89 -48 127 -2 164 76 60 199
-44 153 -130 -13 -23 -2 -36 33 -45 37 -9 46 4 46 67 0 39 -7 59 -35 102 -55
83 -156 115 -245 79z"/>
<path d="M5959 5392 c-37 -38 -108 -102 -114 -102 -7 0 -131 -117 -214 -202
-36 -38 -176 -177 -310 -310 -301 -299 -430 -429 -457 -462 -12 -14 -35 -27
-50 -29 -18 -2 -33 -12 -39 -25 -5 -12 -15 -20 -22 -18 -7 3 -15 0 -19 -6 -4
-7 -9 -6 -15 3 -6 10 -9 8 -9 -9 0 -13 -11 -34 -24 -47 -14 -14 -20 -27 -15
-30 14 -9 0 -26 -19 -23 -10 2 -18 -5 -20 -17 -4 -19 -19 -34 -33 -35 -3 0 -4
11 -2 24 4 19 0 24 -21 28 -36 7 -43 -9 -16 -37 23 -24 22 -25 -29 -52 -12 -7
-27 -10 -32 -7 -5 3 -9 -4 -9 -15 0 -26 -28 -28 -46 -4 -11 17 -14 16 -35 -7
-14 -17 -23 -21 -26 -12 -7 17 -23 15 -23 -4 0 -11 -6 -14 -20 -9 -15 5 -20 2
-20 -11 0 -14 -3 -15 -12 -6 -16 16 -29 15 -22 -3 3 -8 -8 -28 -25 -47 -33
-35 -37 -29 -22 36 12 48 6 63 -27 74 l-26 8 37 23 c50 30 107 79 145 122 l31
36 -47 -7 c-34 -6 -53 -15 -72 -37 -14 -17 -41 -38 -60 -48 -19 -10 -39 -24
-43 -31 -4 -8 -14 -14 -22 -14 -7 0 -15 -6 -18 -12 -3 -10 -7 -10 -18 -1 -9 7
-20 8 -28 4 -11 -7 -10 -11 5 -19 17 -10 17 -11 0 -50 -12 -25 -16 -51 -12
-66 5 -21 3 -26 -11 -26 -21 0 -41 -28 -37 -52 2 -14 -1 -15 -17 -5 -11 7 -17
17 -15 24 11 27 -20 33 -93 20 -39 -8 -71 -10 -71 -5 0 4 -6 8 -14 8 -21 0
-40 27 -24 33 7 3 1 5 -14 4 -29 -1 -36 -11 -18 -22 6 -3 10 -16 10 -29 0 -16
8 -24 32 -31 17 -6 33 -17 36 -25 2 -10 1 -11 -5 -4 -11 14 -56 25 -68 16 -6
-4 -23 -22 -38 -40 -21 -26 -28 -30 -33 -18 -3 8 -3 19 0 24 3 6 0 15 -7 20
-9 8 -24 5 -55 -13 -38 -21 -42 -22 -42 -6 0 9 12 28 26 40 20 18 25 30 22 55
-3 29 -1 32 22 31 14 -1 34 8 44 18 19 20 19 20 -1 37 -20 16 -20 17 18 33 46
20 50 34 12 43 -51 11 -58 14 -46 22 7 4 30 6 53 4 31 -3 40 -8 40 -23 0 -12
7 -19 20 -19 11 0 20 4 20 9 0 17 41 19 70 4 21 -10 41 -12 63 -7 17 4 44 6
60 5 16 -2 27 2 27 10 0 7 12 26 28 42 25 27 26 29 10 41 -10 7 -18 18 -18 25
0 6 -3 11 -7 11 -5 0 -26 18 -48 40 -22 21 -45 39 -52 40 -6 0 -14 8 -17 18
-4 10 -21 35 -39 54 -17 20 -45 53 -60 73 -16 20 -31 34 -35 31 -3 -3 2 -14
11 -24 10 -10 17 -21 17 -24 0 -3 14 -20 30 -38 17 -18 30 -40 30 -50 0 -10
13 -28 30 -40 34 -24 40 -45 10 -37 -16 4 -20 0 -20 -19 0 -22 -4 -24 -52 -23
-54 0 -144 29 -132 42 12 11 -145 8 -167 -3 -13 -7 -19 -7 -19 0 0 5 -25 10
-57 11 -59 1 -106 10 -102 19 5 13 -13 50 -22 44 -6 -4 -6 -11 2 -20 11 -13 5
-19 -16 -14 -5 1 -106 2 -222 3 -117 0 -213 4 -213 9 0 4 5 8 10 8 6 0 10 4
10 8 0 4 -15 6 -34 4 -27 -3 -35 0 -39 15 -3 12 -5 9 -6 -9 -1 -32 -21 -39
-21 -8 0 11 -4 20 -10 20 -5 0 -10 -5 -10 -11 0 -8 -5 -8 -15 1 -8 7 -12 17
-8 23 3 5 1 7 -5 3 -6 -3 -23 11 -38 32 -15 22 -39 44 -53 51 -32 14 -103 74
-78 65 9 -3 17 -1 17 5 0 6 -9 11 -21 11 -11 0 -34 14 -51 30 -16 17 -34 30
-39 30 -5 0 -9 4 -9 9 0 6 15 12 32 14 28 3 27 4 -10 5 -30 2 -41 6 -36 14 5
8 0 9 -16 5 -17 -4 -20 -3 -11 6 8 8 23 8 59 -2 26 -6 48 -16 50 -21 2 -4 12
-6 23 -3 14 4 18 1 14 -9 -4 -10 4 -14 30 -15 36 -1 49 13 18 19 -10 3 10 8
44 12 35 4 61 12 58 16 -3 4 -53 11 -112 14 -60 4 -146 9 -192 11 -80 5 -87 7
-140 47 -31 23 -70 53 -87 67 -114 96 -141 119 -168 144 -26 26 -32 27 -57 16
-27 -11 -33 -8 -113 60 -47 39 -91 71 -98 71 -15 -1 83 -93 124 -118 24 -14
39 -42 23 -42 -6 0 -132 99 -160 125 -12 11 -50 45 -85 75 -36 30 -81 72 -101
93 -21 20 -44 37 -53 37 -17 0 -189 -99 -194 -112 -2 -5 -7 -8 -12 -8 -5 0
-55 -31 -112 -69 -57 -37 -118 -76 -135 -85 -18 -9 -48 -26 -66 -39 -18 -12
-60 -36 -92 -52 -33 -17 -64 -33 -70 -38 -25 -18 -198 -123 -285 -173 -52 -30
-114 -71 -138 -92 -43 -37 -43 -38 -88 -217 -91 -363 -120 -610 -111 -954 5
-213 35 -480 58 -523 6 -11 8 -26 5 -34 -6 -17 80 -364 98 -393 4 -6 47 5 104
26 53 20 113 39 132 44 19 4 73 17 120 29 47 11 92 20 101 20 9 0 22 7 29 15
7 8 15 13 19 11 3 -2 30 2 60 10 29 7 58 11 62 8 5 -3 9 -1 9 4 0 5 24 13 53
16 111 15 127 18 127 27 0 5 12 9 28 9 22 0 24 -2 12 -11 -12 -9 -11 -9 5 -4
23 8 97 24 136 29 14 2 31 6 38 10 7 4 42 8 79 8 45 1 57 3 37 7 -50 11 -15
19 90 22 109 3 274 -5 520 -25 17 -2 46 -6 65 -10 19 -3 73 -8 120 -10 65 -3
89 -1 102 11 14 12 20 12 40 2 13 -7 28 -14 33 -15 6 -1 29 -7 53 -12 23 -6
51 -8 61 -5 11 3 28 0 39 -6 31 -17 371 -49 597 -56 461 -16 533 -23 733 -71
35 -9 71 -13 79 -10 9 4 22 1 29 -5 10 -8 18 -9 27 0 10 7 36 8 83 3 78 -9
155 -9 171 1 5 3 27 -2 47 -12 43 -22 229 -46 278 -36 18 4 39 12 46 18 8 6
70 11 150 12 165 2 302 14 321 29 8 6 50 9 102 8 48 -1 91 2 94 8 3 5 21 0 40
-11 28 -17 49 -20 117 -18 46 1 94 6 108 11 14 6 38 10 55 10 16 -1 35 4 41 9
6 5 60 12 118 15 85 4 117 2 158 -12 43 -14 83 -16 274 -12 205 4 225 6 238
23 12 17 27 19 107 18 52 0 113 -4 137 -8 34 -6 42 -4 42 8 0 10 -7 13 -19 10
-10 -3 -22 0 -26 7 -5 7 -11 8 -19 1 -9 -7 -23 -5 -48 9 -20 10 -45 16 -56 13
-11 -2 -32 3 -46 12 -22 15 -26 15 -26 2 0 -17 -28 -43 -37 -33 -3 3 2 15 11
25 21 23 12 45 -15 38 -23 -6 -24 -1 -3 20 11 12 18 13 27 4 6 -6 20 -11 31
-11 15 0 17 3 9 11 -8 8 -4 19 18 40 16 16 25 29 19 29 -5 0 -10 7 -10 17 0
15 1 15 18 0 12 -11 37 -17 68 -18 27 0 43 -3 37 -6 -7 -2 -13 -9 -13 -14 0
-11 31 0 48 18 18 18 35 16 28 -2 -3 -8 -1 -15 4 -15 6 0 10 7 10 16 0 10 6
14 15 10 10 -4 17 3 20 22 4 15 13 55 21 89 24 107 13 142 -29 92 -10 -11 -24
-18 -31 -16 -7 3 -46 -1 -87 -9 -69 -13 -109 -12 -109 4 0 4 19 7 42 7 37 0
43 3 46 23 3 17 10 22 34 22 22 0 31 6 35 20 3 11 10 20 17 19 6 -1 32 -1 57
0 44 1 47 3 53 33 8 40 -4 47 -61 37 -44 -9 -69 -19 -45 -19 23 0 12 -30 -10
-31 -132 -4 -133 -4 -136 -23 -2 -10 2 -22 10 -27 10 -7 10 -9 0 -9 -7 0 -17
11 -21 24 -7 18 -19 24 -52 29 -23 3 -53 1 -66 -4 -14 -5 -29 -7 -34 -3 -18
11 -8 22 24 28 45 8 44 43 -1 62 -46 19 -39 25 11 10 23 -7 49 -11 57 -8 8 2
5 -3 -7 -12 -30 -23 -19 -42 28 -50 49 -8 86 8 68 30 -9 11 -8 14 4 14 8 0 17
-8 20 -19 3 -11 16 -20 35 -23 26 -4 31 -1 35 19 2 13 0 23 -4 23 -5 0 -9 9
-9 21 0 12 -8 23 -20 26 -11 3 -20 12 -20 19 0 8 -9 15 -20 15 -11 1 -24 3
-30 4 -5 1 -17 3 -25 4 -12 1 -13 4 -3 20 9 15 9 23 -1 34 -13 16 -5 18 98 29
14 2 26 8 28 14 2 7 -6 10 -22 7 -18 -4 -25 -1 -25 10 0 9 -9 19 -21 22 -28 9
-109 -4 -109 -17 0 -6 -8 -4 -18 5 -10 10 -33 17 -50 17 -30 0 -32 2 -32 35 0
34 1 35 28 29 15 -4 28 -10 30 -14 8 -21 30 -40 52 -45 30 -7 73 27 64 50 -4
10 0 15 16 15 33 0 60 18 60 41 0 19 -5 21 -67 19 -113 -5 -183 -1 -183 10 0
6 18 10 41 10 38 0 69 17 69 38 0 17 -25 31 -65 35 l-40 4 3 71 c4 71 4 72
-34 107 -28 26 -40 32 -46 23 -5 -9 -8 -8 -8 5 0 14 -5 17 -21 12 -13 -5 -19
-3 -15 3 3 5 -10 13 -31 17 -31 6 -34 8 -20 16 9 6 17 21 17 35 0 19 -6 26
-28 30 -17 4 -36 17 -45 34 -14 24 -25 29 -66 32 -50 3 -71 -8 -71 -37 0 -8
-6 -15 -12 -16 -7 -1 -22 -2 -33 -3 -14 -1 -21 -9 -23 -28 -2 -16 2 -28 8 -28
6 0 8 -4 5 -10 -10 -16 -55 -12 -55 5 0 8 -8 15 -17 16 -10 0 -31 3 -46 5 -18
3 -26 1 -23 -5 4 -6 -2 -15 -13 -20 -29 -16 -35 -13 -16 5 15 16 15 19 -9 42
-18 18 -35 25 -63 25 -21 0 -28 2 -16 4 30 6 35 27 12 52 -23 24 -38 25 -109
10 -47 -10 -51 -13 -48 -37 2 -22 9 -28 36 -30 17 -2 32 -7 32 -13 0 -5 -4 -9
-10 -9 -5 0 -7 -7 -4 -15 4 -8 2 -15 -4 -15 -5 0 -12 9 -15 20 -3 11 -9 20
-14 19 -38 -7 -49 2 -45 35 3 27 0 37 -17 45 -14 8 -21 8 -21 1 0 -5 -15 -9
-32 -9 -18 1 -25 3 -15 6 9 2 17 11 17 19 0 8 8 14 18 15 12 1 9 4 -8 10 -18
6 -10 7 30 4 30 -2 50 -2 43 1 -7 3 -9 11 -7 19 4 10 12 11 29 5 12 -5 31 -7
41 -6 11 2 13 1 7 -1 -24 -8 -13 -23 12 -17 16 4 25 2 25 -6 0 -6 5 -8 10 -5
6 4 18 1 26 -6 26 -21 99 -17 133 8 22 17 46 23 93 25 l63 2 3 50 c2 28 4 52
6 53 1 1 19 -2 39 -8 30 -8 40 -7 56 8 12 10 21 23 21 30 0 7 5 13 11 13 5 0
7 -5 4 -10 -3 -6 -3 -19 0 -31 6 -18 12 -20 48 -14 96 14 97 15 97 45 0 35
-13 39 -94 28 -38 -5 -63 -5 -70 2 -12 12 -11 12 64 14 53 1 55 2 56 29 1 24
-2 27 -31 27 -18 0 -53 -3 -79 -6 -36 -5 -46 -11 -46 -25 0 -11 5 -19 11 -19
5 0 8 -3 5 -8 -2 -4 -24 -6 -49 -4 -42 4 -45 6 -50 35 -5 36 -2 146 5 153 3 2
27 0 55 -5 67 -13 90 -6 97 30 3 16 11 29 18 29 9 0 9 -3 0 -12 -16 -16 3 -48
29 -48 11 0 22 -6 25 -14 5 -12 12 -12 50 1 35 12 44 19 39 32 -12 31 -10 36
20 39 18 2 25 0 18 -6 -7 -4 -14 -19 -15 -32 -3 -23 1 -25 46 -28 42 -3 53 0
67 19 l16 22 22 -22 c11 -11 21 -25 21 -30 0 -5 3 -11 8 -14 4 -2 0 -2 -8 1
-8 2 -35 6 -60 8 -40 3 -49 0 -69 -25 -23 -28 -24 -28 -42 -10 -22 22 -97 26
-131 8 -27 -14 -69 -4 -62 16 7 17 -11 21 -21 5 -3 -5 -26 -10 -50 -10 -52 0
-69 -25 -35 -52 37 -30 124 -16 113 19 -3 7 3 10 16 6 10 -3 21 -13 24 -24 4
-16 14 -19 61 -19 30 0 67 5 81 12 19 8 29 8 37 0 8 -8 1 -12 -26 -17 -47 -9
-66 -39 -34 -56 20 -11 20 -13 4 -24 -9 -7 -18 -26 -19 -41 -1 -16 -7 -29 -12
-30 -20 -2 -63 -23 -71 -35 -4 -7 0 -17 9 -24 25 -18 20 -28 -10 -22 -36 7
-53 -1 -46 -21 4 -13 3 -14 -5 -4 -5 8 -19 12 -31 10 -20 -3 -21 -5 -8 -22 19
-26 137 -37 137 -13 0 8 -6 18 -12 20 -8 3 -6 6 5 6 18 1 25 21 7 21 -5 0 -10
4 -10 9 0 5 12 6 28 2 26 -8 75 3 98 21 7 5 10 17 7 27 -3 14 3 20 26 24 28 6
31 10 31 47 0 23 5 40 11 40 7 0 9 -11 6 -30 -6 -25 -2 -32 21 -44 15 -9 21
-15 15 -16 -24 0 -13 -36 16 -53 17 -10 33 -17 38 -16 4 1 24 1 42 0 27 -1 32
-4 23 -13 -19 -19 -14 -48 11 -57 70 -26 75 -24 108 26 l30 48 -3 -70 -3 -70
-37 -3 c-29 -2 -38 -8 -38 -21 0 -20 32 -31 103 -36 43 -4 42 -13 22 133 -15
117 -34 161 -96 227 -45 48 -69 77 -69 86 0 4 -6 14 -12 21 -7 7 -25 29 -40
50 -15 20 -34 43 -42 50 -21 22 -235 307 -248 332 -10 18 -59 82 -116 151 -70
85 -102 126 -102 131 0 3 -13 18 -28 32 -15 15 -67 80 -116 144 -48 65 -92
120 -97 124 -12 7 -49 -16 -86 -55 -15 -17 -66 -71 -113 -121 -98 -105 -284
-294 -421 -426 -52 -50 -142 -142 -200 -205 -59 -63 -141 -150 -183 -194 l-76
-80 0 -60 c0 -33 -3 -77 -6 -97 l-7 -38 -66 0 c-36 0 -83 -5 -105 -11 -41 -11
-50 -7 -60 27 -5 17 7 34 60 85 106 102 227 223 250 250 12 13 30 31 40 40 10
9 54 52 97 96 42 45 84 84 92 87 8 3 15 11 15 18 0 21 127 150 133 136 3 -7 6
-5 6 7 1 11 60 77 144 157 211 206 226 221 298 295 77 78 170 163 180 163 4 0
12 -13 19 -30 7 -16 16 -30 20 -30 4 0 26 -24 48 -52 22 -29 53 -67 70 -85 16
-17 39 -47 51 -66 11 -19 31 -45 44 -58 13 -13 39 -46 57 -74 19 -27 57 -75
85 -105 28 -30 78 -91 110 -135 33 -44 65 -84 72 -88 7 -4 19 -20 27 -35 8
-15 27 -40 42 -57 25 -26 208 -253 256 -317 30 -41 19 -3 -14 48 -29 42 -51
72 -93 118 -5 6 -26 33 -45 59 -19 27 -74 96 -122 153 -49 57 -88 108 -88 113
0 5 -13 21 -30 34 -16 14 -30 31 -30 37 0 12 -129 184 -177 236 -65 71 -91
102 -133 159 -54 71 -88 113 -113 134 -10 9 -25 28 -33 44 -18 33 -22 33 -55
-1z m21 -172 c0 -5 -4 -10 -10 -10 -5 0 -10 5 -10 10 0 6 5 10 10 10 6 0 10
-4 10 -10z m70 -85 c-7 -8 -16 -12 -21 -9 -13 8 -1 24 18 24 13 0 13 -3 3 -15z
m-52 -12 c-10 -2 -28 -2 -40 0 -13 2 -5 4 17 4 22 1 32 -1 23 -4z m85 -70 c-7
-2 -19 -2 -25 0 -7 3 -2 5 12 5 14 0 19 -2 13 -5z m-53 -59 c0 -10 6 -14 18
-10 31 9 118 10 132 1 12 -7 9 -11 -10 -15 -25 -7 -27 -11 -15 -42 6 -14 2
-18 -14 -18 -18 0 -20 4 -15 24 8 32 -5 38 -89 38 -86 1 -102 7 -62 24 40 18
55 17 55 -2z m-4530 -28 c0 -3 -4 -8 -10 -11 -5 -3 -10 -1 -10 4 0 6 5 11 10
11 6 0 10 -2 10 -4z m67 -2 c-3 -3 -12 -4 -19 -1 -8 3 -5 6 6 6 11 1 17 -2 13
-5z m-67 -80 c0 -8 -4 -14 -10 -14 -5 0 -10 4 -10 9 0 5 -3 18 -7 28 -6 16 -5
16 10 4 9 -7 17 -20 17 -27z m4460 26 c0 -5 -4 -10 -9 -10 -6 0 -13 5 -16 10
-3 6 1 10 9 10 9 0 16 -4 16 -10z m274 1 c10 -16 -21 -20 -41 -6 -17 13 -16
14 9 15 15 0 29 -4 32 -9z m-4184 -18 c0 -5 21 -21 45 -38 25 -16 45 -36 45
-44 0 -8 2 -12 5 -9 3 3 18 -6 34 -21 39 -37 64 -56 85 -64 10 -4 20 -16 23
-27 3 -11 10 -20 17 -19 22 4 46 -13 46 -32 0 -10 5 -19 11 -19 5 0 34 -22 62
-48 29 -26 86 -74 127 -107 41 -33 96 -79 123 -104 26 -24 47 -40 47 -36 0 5
16 -9 37 -30 41 -42 37 -48 -34 -59 l-43 -6 0 44 c0 51 -20 80 -94 136 -148
112 -207 158 -238 185 -18 17 -56 48 -83 70 -41 33 -107 90 -180 155 -5 5 -16
16 -23 25 -18 21 -33 19 -77 -11 -61 -41 -71 -23 -13 23 50 40 78 53 78 36z
m4219 -49 c26 -3 61 -36 61 -57 0 -8 27 -44 61 -81 33 -36 58 -66 54 -66 -3 0
3 -13 15 -30 l21 -30 -38 -1 c-21 -1 -47 -4 -58 -7 -23 -8 -32 -40 -13 -47 68
-24 72 -26 58 -35 -9 -6 -19 -5 -24 0 -11 11 -59 13 -105 4 -26 -6 -30 -10
-25 -30 6 -22 3 -24 -27 -24 -19 0 -44 -3 -56 -6 -22 -6 -23 -4 -23 70 0 67 2
76 18 76 10 0 23 -5 28 -10 7 -7 28 -8 60 -3 46 8 49 10 52 41 l3 32 -68 1
c-37 1 -73 1 -79 0 -7 -1 -12 13 -12 34 0 26 -7 41 -26 56 -22 17 -24 24 -15
36 9 10 25 12 64 8 34 -5 55 -3 59 4 4 6 16 11 27 11 25 0 24 16 -1 30 -11 6
-20 7 -20 2 0 -15 -78 -11 -84 4 -7 18 24 35 49 27 11 -3 31 -7 44 -9z m-374
-4 c3 -6 -4 -9 -17 -9 -13 1 -31 -2 -40 -6 -11 -4 -18 -3 -18 3 0 20 64 30 75
12z m125 -14 c0 -3 -4 -8 -10 -11 -5 -3 -10 -1 -10 4 0 6 5 11 10 11 6 0 10
-2 10 -4z m-300 -22 c0 -2 -9 -4 -20 -4 -11 0 -20 4 -20 9 0 5 9 7 20 4 11 -3
20 -7 20 -9z m220 4 c0 -6 -3 -9 -6 -6 -3 4 -19 2 -35 -2 -16 -5 -31 -5 -34 0
-5 7 12 12 63 19 6 0 12 -4 12 -11z m40 -8 c0 -11 -4 -20 -10 -20 -5 0 -10 9
-10 20 0 11 5 20 10 20 6 0 10 -9 10 -20z m30 -4 c0 -3 -4 -8 -10 -11 -5 -3
-10 -1 -10 4 0 6 5 11 10 11 6 0 10 -2 10 -4z m-270 -21 c0 -8 -2 -15 -4 -15
-2 0 -6 7 -10 15 -3 8 -1 15 4 15 6 0 10 -7 10 -15z m64 -11 c9 -3 16 -12 16
-20 0 -20 -13 -17 -28 6 -13 22 -12 23 12 14z m-3961 -19 c-3 -9 -8 -14 -10
-11 -3 3 -2 9 2 15 9 16 15 13 8 -4z m3922 -5 c3 -5 -1 -10 -10 -10 -9 0 -13
5 -10 10 3 6 8 10 10 10 2 0 7 -4 10 -10z m-3978 -40 c-19 -16 -40 -30 -46
-30 -6 0 -11 -4 -11 -9 0 -5 -7 -11 -15 -15 -26 -10 -16 10 12 25 15 8 37 24
49 37 13 12 28 22 34 22 6 0 -5 -13 -23 -30z m4049 -55 c5 -11 10 -13 19 -5 9
8 15 7 19 -2 5 -10 7 -10 12 0 3 6 9 10 13 7 4 -2 49 -6 100 -9 51 -2 97 -8
101 -12 4 -5 10 -134 12 -286 l4 -278 -55 0 c-31 0 -63 5 -71 10 -11 7 -11 10
-2 10 7 0 10 5 7 10 -3 6 -2 10 4 10 5 0 13 -4 16 -10 10 -17 53 -11 59 8 3 9
7 124 8 255 2 200 0 240 -12 247 -8 6 -63 10 -121 10 l-105 0 4 -62 c3 -35 9
-66 14 -69 5 -3 2 -9 -7 -13 -15 -5 -16 -24 -10 -198 3 -105 8 -195 10 -199 5
-7 -18 -19 -35 -19 -5 0 -12 17 -16 37 -6 30 -8 34 -14 18 -6 -16 -15 -19 -48
-16 l-42 3 0 -41 c0 -23 -4 -41 -9 -41 -4 0 -7 16 -5 35 1 19 -1 33 -5 31 -4
-3 -8 1 -8 9 0 9 10 15 26 15 31 1 71 31 71 54 0 9 6 16 14 16 9 0 12 7 9 21
-5 16 -8 18 -15 7 -5 -8 -8 3 -7 32 1 25 6 50 10 56 5 5 9 41 10 80 1 38 5 76
10 85 5 9 10 60 11 113 3 90 11 116 24 81z m-99 -61 c4 -49 -3 -58 -31 -37
-23 18 -24 18 -3 23 19 5 19 7 4 22 -13 12 -14 18 -4 21 22 9 32 1 34 -29z
m-3039 19 c-16 -2 -40 -2 -55 0 -16 2 -3 4 27 4 30 0 43 -2 28 -4z m-1088 -27
c0 -7 -9 -16 -20 -19 -25 -6 -26 1 -2 19 22 17 22 17 22 0z m4421 -93 c30 -8
22 -18 -13 -17 -32 1 -48 17 -29 29 6 3 12 23 13 43 1 35 2 35 5 -7 3 -32 9
-44 24 -48z m-5201 48 c0 -17 6 -19 45 -16 35 4 46 1 54 -13 9 -17 5 -18 -50
-14 -57 4 -59 4 -59 -21 0 -21 -6 -26 -36 -32 -33 -6 -36 -9 -32 -36 4 -25 1
-29 -18 -29 -21 0 -22 3 -13 32 8 29 19 43 43 51 5 2 6 16 2 31 -6 23 -11 27
-31 24 -13 -3 -22 -1 -19 3 3 5 15 9 28 9 12 0 31 7 42 15 27 20 44 19 44 -4z
m4860 -26 c0 -5 -5 -3 -10 5 -5 8 -10 20 -10 25 0 6 5 3 10 -5 5 -8 10 -19 10
-25z m243 -44 c-5 -20 -7 -20 -18 -5 -9 13 -9 23 -1 40 10 21 12 21 18 4 4
-10 4 -28 1 -39z m611 44 c19 -14 19 -15 -6 -15 -15 0 -34 3 -44 7 -16 6 -16
7 2 14 26 10 26 10 48 -6z m76 -91 c0 -1 -12 1 -27 5 -16 4 -35 6 -43 3 -13
-4 -12 -2 1 14 9 10 14 26 11 34 -2 8 10 0 27 -19 17 -19 31 -36 31 -37z
m-194 18 c-22 -5 -30 3 -21 18 5 8 11 7 22 -2 15 -12 14 -13 -1 -16z m-5044
-59 c-3 -46 -7 -53 -25 -53 -48 0 -67 12 -67 39 0 26 32 57 49 47 4 -3 17 1
27 9 10 7 19 13 20 12 0 -1 -2 -26 -4 -54z m4615 35 c-3 -8 -6 -5 -6 6 -1 11
2 17 5 13 3 -3 4 -12 1 -19z m-5112 -28 c3 -5 -2 -10 -12 -10 -11 0 -24 -5
-30 -11 -8 -8 -16 -8 -30 0 -16 9 -15 10 9 11 15 0 30 5 33 10 3 6 10 10 15
10 5 0 12 -4 15 -10z m-209 -16 c-3 -9 -6 -20 -6 -25 0 -21 -15 -7 -16 16 -1
16 3 25 13 25 10 0 13 -6 9 -16z m254 6 c0 -5 -2 -10 -4 -10 -3 0 -8 5 -11 10
-3 6 -1 10 4 10 6 0 11 -4 11 -10z m4768 -7 c-10 -2 -28 -2 -40 0 -13 2 -5 4
17 4 22 1 32 -1 23 -4z m-3646 -30 c5 -39 -1 -63 -16 -63 -14 0 -30 66 -20 82
11 18 32 7 36 -19z m3608 3 c0 -7 -9 -16 -20 -19 -17 -4 -18 -2 -9 14 11 22
29 25 29 5z m40 5 c0 -17 -18 -21 -24 -6 -3 9 0 15 9 15 8 0 15 -4 15 -9z
m195 -1 c-3 -5 -10 -10 -16 -10 -5 0 -9 5 -9 10 0 6 7 10 16 10 8 0 12 -4 9
-10z m-5044 -16 c15 -14 20 -14 54 0 35 15 39 15 71 -5 35 -21 38 -28 28 -66
-9 -33 -19 -28 -19 9 0 27 -4 33 -34 40 -18 5 -41 6 -50 2 -9 -4 -27 -7 -41
-8 -21 -1 -25 -6 -23 -28 3 -42 -14 -33 -19 10 -5 37 -1 62 10 62 3 0 13 -7
23 -16z m169 6 c0 -5 -5 -10 -11 -10 -5 0 -7 5 -4 10 3 6 8 10 11 10 2 0 4 -4
4 -10z m23 -15 c-3 -9 -8 -14 -10 -11 -3 3 -2 9 2 15 9 16 15 13 8 -4z m-361
-13 c-7 -2 -12 -21 -12 -43 0 -21 -5 -39 -11 -39 -7 0 -8 11 -4 30 6 25 3 32
-17 39 -23 10 -23 10 -1 10 12 1 25 6 28 11 4 6 11 7 18 3 8 -5 8 -8 -1 -11z
m105 7 c-11 -7 -18 -21 -17 -37 3 -43 -2 -50 -9 -12 -8 38 3 60 28 60 14 -1
13 -2 -2 -11z m5920 -9 c3 -11 9 -20 14 -20 5 0 9 -7 9 -16 0 -9 -7 -14 -17
-12 -10 2 -18 11 -18 20 0 9 -4 20 -8 24 -4 4 -7 -5 -7 -19 0 -15 -4 -27 -10
-27 -13 0 -13 12 0 44 11 31 30 34 37 6z m-5517 -37 c0 -13 -6 -23 -13 -23 -9
0 -12 11 -9 36 5 39 22 29 22 -13z m-590 27 c0 -5 -5 -10 -11 -10 -5 0 -7 5
-4 10 3 6 8 10 11 10 2 0 4 -4 4 -10z m725 -21 c0 -8 -10 -15 -22 -17 -13 -2
-23 1 -23 7 0 15 -37 14 -43 -1 -2 -7 -8 -10 -12 -6 -4 4 -1 13 6 20 17 18 94
15 94 -3z m672 1 c-3 -10 0 -21 7 -24 6 -2 -3 -5 -21 -5 -19 -1 -42 -11 -57
-25 l-26 -23 21 -27 c11 -14 30 -26 42 -26 21 -1 21 -1 3 -11 -15 -9 -23 -6
-46 20 -33 35 -31 35 -64 20 -17 -8 -28 -25 -36 -57 -12 -47 -8 -57 25 -65 11
-3 3 -5 -18 -6 -36 -1 -38 -3 -36 -29 2 -15 0 -33 -5 -40 -4 -7 -6 -29 -5 -50
2 -21 0 -42 -3 -47 -7 -13 -1 -156 7 -164 4 -3 108 -7 231 -8 260 -1 229 -19
239 139 4 73 2 97 -7 101 -10 4 -10 7 0 15 9 6 12 25 10 53 -3 40 -5 44 -28
41 -23 -2 -24 -1 -7 11 22 19 22 44 -4 86 -14 24 -25 32 -39 28 -14 -4 -20 0
-20 13 0 23 -17 36 -57 45 -24 5 -33 12 -33 26 0 74 153 -20 196 -121 18 -41
22 -191 10 -355 l-9 -110 -201 1 c-110 0 -228 1 -262 2 l-61 2 8 58 c5 31 8
105 8 163 0 109 1 118 28 229 19 78 39 102 101 125 26 9 54 20 62 25 28 17 53
12 47 -10z m-1037 -20 c0 -11 -4 -20 -10 -20 -5 0 -10 9 -10 20 0 11 5 20 10
20 6 0 10 -9 10 -20z m5690 10 c0 -5 -8 -10 -17 -10 -15 0 -16 2 -3 10 19 12
20 12 20 0z m115 -19 c3 -10 14 -26 25 -36 11 -10 20 -22 20 -26 0 -11 -41 -5
-65 9 -17 10 -18 11 -2 12 9 0 17 5 17 10 0 6 -4 10 -9 10 -6 0 -9 9 -8 20 2
25 14 26 22 1z m-6169 -28 c-11 -11 -19 6 -11 24 8 17 8 17 12 0 3 -10 2 -21
-1 -24z m1441 15 c-3 -8 -6 -5 -6 6 -1 11 2 17 5 13 3 -3 4 -12 1 -19z m1353
2 c0 -5 -7 -7 -15 -4 -8 4 -12 10 -9 15 6 11 24 2 24 -11z m2559 -13 c10 -2
24 -1 32 3 8 5 19 2 27 -6 11 -12 5 -14 -40 -14 -29 0 -60 5 -68 10 -13 8 -12
10 3 10 9 0 18 8 18 18 1 15 2 15 6 1 2 -10 12 -19 22 -22z m404 16 c-7 -2
-19 -2 -25 0 -7 3 -2 5 12 5 14 0 19 -2 13 -5z m-2853 -23 c0 -5 -7 -7 -15 -4
-8 4 -12 10 -9 15 6 11 24 2 24 -11z m145 4 c-12 -13 -19 -14 -30 -4 -11 9
-15 9 -15 1 0 -6 -12 -10 -27 -10 -21 1 -23 2 -8 6 11 3 24 9 30 14 5 5 22 9
38 9 26 0 27 -1 12 -16z m2997 -36 c-7 -7 -12 -8 -12 -2 0 14 12 26 19 19 2
-3 -1 -11 -7 -17z m-5462 2 c0 -5 -4 -10 -10 -10 -5 0 -10 5 -10 10 0 6 5 10
10 10 6 0 10 -4 10 -10z m4817 -37 c-3 -10 -5 -2 -5 17 0 19 2 27 5 18 2 -10
2 -26 0 -35z m-3947 22 c7 -9 8 -15 2 -15 -5 0 -12 7 -16 15 -3 8 -4 15 -2 15
2 0 9 -7 16 -15z m45 -15 c3 -5 1 -10 -4 -10 -6 0 -11 5 -11 10 0 6 2 10 4 10
3 0 8 -4 11 -10z m47 -30 l22 -20 -25 0 c-18 0 -25 5 -25 20 0 11 2 20 4 20 1
0 12 -9 24 -20z m683 10 c-3 -5 -17 -10 -31 -10 -14 0 -22 4 -19 10 3 6 17 10
31 10 14 0 22 -4 19 -10z m50 0 c-3 -5 -13 -10 -21 -10 -8 0 -14 5 -14 10 0 6
9 10 21 10 11 0 17 -4 14 -10z m58 3 c-7 -2 -21 -2 -30 0 -10 3 -4 5 12 5 17
0 24 -2 18 -5z m-2178 -13 c3 -5 1 -10 -4 -10 -6 0 -11 5 -11 10 0 6 2 10 4
10 3 0 8 -4 11 -10z m95 -6 c0 -2 -7 -4 -15 -4 -8 0 -15 4 -15 10 0 5 7 7 15
4 8 -4 15 -8 15 -10z m160 6 c0 -5 -7 -10 -16 -10 -8 0 -12 5 -9 10 3 6 10 10
16 10 5 0 9 -4 9 -10z m73 -15 c-7 -21 -13 -19 -13 6 0 11 4 18 10 14 5 -3 7
-12 3 -20z m5682 15 c-3 -5 -12 -10 -18 -10 -7 0 -6 4 3 10 19 12 23 12 15 0z
m78 -11 c24 -1 26 -3 9 -6 -12 -2 -20 -8 -18 -12 3 -4 2 -12 -2 -17 -4 -7 -17
1 -32 20 -20 24 -21 29 -7 23 10 -4 33 -8 50 -8z m-3363 -13 c127 -6 119 -4
98 -17 -14 -8 -18 -24 -19 -67 0 -31 -4 -66 -9 -77 -15 -38 -23 12 -11 72 6
33 7 61 2 66 -5 5 -47 9 -95 10 -68 2 -87 -1 -92 -13 -5 -13 -8 -12 -19 4 -11
14 -23 17 -54 14 -23 -2 -41 -2 -41 0 0 9 49 18 89 15 25 -1 93 -4 151 -7z
m165 -6 c4 -6 -5 -10 -19 -10 -14 0 -26 5 -26 10 0 6 9 10 19 10 11 0 23 -4
26 -10z m-2888 -37 c-3 -10 -5 -4 -5 12 0 17 2 24 5 18 2 -7 2 -21 0 -30z
m2923 33 c0 -3 -4 -8 -10 -11 -5 -3 -10 -1 -10 4 0 6 5 11 10 11 6 0 10 -2 10
-4z m2250 -16 c0 -5 -8 -10 -17 -10 -15 0 -16 2 -3 10 19 12 20 12 20 0z
m-4853 -22 c-3 -8 -6 -5 -6 6 -1 11 2 17 5 13 3 -3 4 -12 1 -19z m998 0 c17
-3 15 -5 -7 -10 -24 -4 -28 -2 -28 16 0 13 3 16 8 10 4 -7 16 -14 27 -16z
m118 7 c0 -6 -7 -11 -16 -13 -12 -3 -15 1 -11 13 7 17 25 17 27 0z m-283 -5
c0 -5 -5 -10 -11 -10 -5 0 -7 5 -4 10 3 6 8 10 11 10 2 0 4 -4 4 -10z m870
-20 c0 -16 -4 -30 -8 -30 -5 0 -7 14 -4 30 2 17 6 30 8 30 2 0 4 -13 4 -30z
m470 10 c0 -11 -4 -20 -9 -20 -5 0 -7 9 -4 20 3 11 7 20 9 20 2 0 4 -9 4 -20z
m-2330 -26 c0 -19 -4 -33 -8 -30 -8 5 -4 66 4 66 2 0 4 -16 4 -36z m2748 -13
c-15 -5 -18 3 -11 29 l7 25 6 -25 c3 -14 2 -27 -2 -29z m-790 -4 c26 -4 26 -4
-3 -5 -16 -1 -37 3 -45 8 -10 6 -11 10 -2 10 6 0 13 8 13 18 1 12 3 10 6 -5 3
-14 13 -23 31 -26z m3975 36 c-7 -2 -19 -2 -25 0 -7 3 -2 5 12 5 14 0 19 -2
13 -5z m-5673 -19 c0 -2 -9 -4 -21 -4 -11 0 -18 4 -14 10 5 8 35 3 35 -6z
m939 -36 c1 -10 -2 -18 -6 -18 -5 0 -9 17 -10 38 -1 28 0 32 7 17 5 -11 9 -28
9 -37z m2521 44 c0 -5 -19 -19 -42 -32 -86 -49 -97 -55 -122 -73 -16 -12 -33
-16 -46 -12 -19 6 -16 9 22 28 24 11 45 24 48 28 3 3 25 20 50 37 42 30 90 42
90 24z m-1294 -50 c-12 -11 -18 7 -10 30 l8 23 4 -23 c2 -13 1 -26 -2 -30z
m-2261 23 c6 -2 -21 -3 -60 -3 -42 0 -60 3 -46 7 23 6 83 4 106 -4z m1112 -32
c-3 -10 -5 -2 -5 17 0 19 2 27 5 18 2 -10 2 -26 0 -35z m-1557 17 c0 -5 -2
-10 -4 -10 -3 0 -8 5 -11 10 -3 6 -1 10 4 10 6 0 11 -4 11 -10z m1250 -10 c0
-5 -2 -10 -4 -10 -3 0 -8 5 -11 10 -3 6 -1 10 4 10 6 0 11 -4 11 -10z m1795 0
c3 -5 -1 -10 -9 -10 -9 0 -16 5 -16 10 0 6 4 10 9 10 6 0 13 -4 16 -10z m-527
-20 c-14 -22 -24 -19 -15 5 4 8 11 15 17 15 6 0 6 -7 -2 -20z m102 10 c0 -6
-11 -8 -27 -4 -40 10 -41 14 -5 14 18 0 32 -5 32 -10z m-493 -22 c-3 -8 -6 -5
-6 6 -1 11 2 17 5 13 3 -3 4 -12 1 -19z m-1847 -63 c0 -41 -4 -75 -9 -75 -10
0 -13 100 -4 133 9 34 13 16 13 -58z m3484 67 c2 -4 1 -14 -4 -22 -7 -11 -11
-11 -24 -1 -9 7 -13 17 -10 22 7 11 31 12 38 1z m-1057 -17 c0 -8 -4 -15 -9
-15 -4 0 -8 7 -8 15 0 8 4 15 8 15 5 0 9 -7 9 -15z m-2597 -9 c0 -8 -4 -18
-10 -21 -5 -3 -10 3 -10 14 0 12 5 21 10 21 6 0 10 -6 10 -14z m1450 -33 c0
-39 -2 -44 -12 -31 -7 9 -20 18 -28 21 -10 4 -7 6 8 6 17 1 22 7 22 26 0 14 2
25 5 25 3 0 5 -21 5 -47z m-1182 22 c1 -5 -5 -10 -13 -9 -61 3 -69 5 -58 12
17 11 68 9 71 -3z m2432 0 c-7 -8 -24 -15 -39 -15 l-26 1 30 14 c40 18 50 18
35 0z m-2610 -5 c0 -5 -15 -10 -32 -10 -25 0 -29 3 -18 10 20 13 50 13 50 0z
m240 -6 c0 -9 -7 -14 -17 -12 -25 5 -28 28 -4 28 12 0 21 -6 21 -16z m890 -4
c0 -16 -7 -20 -31 -20 -17 0 -28 4 -24 10 3 5 12 7 20 3 9 -3 15 1 15 11 0 9
5 16 10 16 6 0 10 -9 10 -20z m1194 -32 c-1 -24 -5 -51 -9 -61 -8 -19 -2 -79
10 -109 5 -13 2 -18 -9 -18 -13 0 -16 13 -16 78 0 83 9 152 19 152 4 0 6 -19
5 -42z m121 32 c-28 -12 -45 -12 -45 0 0 6 15 10 33 9 27 0 29 -2 12 -9z m60
0 c3 -5 1 -10 -4 -10 -6 0 -11 5 -11 10 0 6 2 10 4 10 3 0 8 -4 11 -10z
m-2705 -10 c0 -5 -7 -10 -16 -10 -8 0 -12 5 -9 10 3 6 10 10 16 10 5 0 9 -4 9
-10z m1250 1 c0 -5 -9 -7 -20 -4 -11 3 -20 7 -20 9 0 2 9 4 20 4 11 0 20 -4
20 -9z m235 -11 c-3 -4 -15 -6 -27 -2 -21 5 -21 6 -2 12 21 8 37 3 29 -10z
m1220 -9 c3 -5 1 -12 -5 -16 -5 -3 -10 1 -10 9 0 18 6 21 15 7z m-1108 -7 c-3
-3 -12 -4 -19 -1 -8 3 -5 6 6 6 11 1 17 -2 13 -5z m-1490 -41 c-3 -10 -5 -4
-5 12 0 17 2 24 5 18 2 -7 2 -21 0 -30z m250 0 c-3 -10 -5 -4 -5 12 0 17 2 24
5 18 2 -7 2 -21 0 -30z m69 0 c-11 -11 -19 6 -11 24 8 17 8 17 12 0 3 -10 2
-21 -1 -24z m101 31 c-3 -3 -12 -4 -19 -1 -8 3 -5 6 6 6 11 1 17 -2 13 -5z
m-600 -41 c-3 -10 -5 -4 -5 12 0 17 2 24 5 18 2 -7 2 -21 0 -30z m2200 -20
c-3 -10 -5 -4 -5 12 0 17 2 24 5 18 2 -7 2 -21 0 -30z m3020 31 c-3 -3 -12 -4
-19 -1 -8 3 -5 6 6 6 11 1 17 -2 13 -5z m-1887 -14 c0 -5 -4 -10 -10 -10 -5 0
-10 5 -10 10 0 6 5 10 10 10 6 0 10 -4 10 -10z m2140 0 c0 -5 -4 -10 -9 -10
-6 0 -13 5 -16 10 -3 6 1 10 9 10 9 0 16 -4 16 -10z m-423 -6 c-3 -3 -12 -4
-19 -1 -8 3 -5 6 6 6 11 1 17 -2 13 -5z m-3567 -25 c0 -6 -4 -7 -10 -4 -5 3
-10 11 -10 16 0 6 5 7 10 4 6 -3 10 -11 10 -16z m70 11 c0 -5 -15 -9 -32 -9
l-33 1 30 8 c17 4 31 8 33 9 1 0 2 -3 2 -9z m790 0 c0 -5 -2 -10 -4 -10 -3 0
-8 5 -11 10 -3 6 -1 10 4 10 6 0 11 -4 11 -10z m-2130 -16 c0 -2 -21 -3 -47
-3 -41 1 -44 2 -18 8 28 7 65 4 65 -5z m337 2 c4 -3 -56 -5 -133 -5 -77 1
-126 4 -109 8 35 8 234 6 242 -3z m4463 4 c0 -5 -5 -10 -11 -10 -5 0 -7 5 -4
10 3 6 8 10 11 10 2 0 4 -4 4 -10z m-4903 -6 c-3 -3 -12 -4 -19 -1 -8 3 -5 6
6 6 11 1 17 -2 13 -5z m2230 -26 c-3 -8 -6 -5 -6 6 -1 11 2 17 5 13 3 -3 4
-12 1 -19z m-7 -38 c0 -5 -10 -10 -22 -9 -22 0 -22 1 -3 9 11 5 21 9 23 9 1 1
2 -3 2 -9z m-1665 -44 c12 -12 11 -14 -10 -12 -25 1 -31 7 -18 19 9 10 13 9
28 -7z m89 -15 c3 -5 -1 -14 -10 -22 -12 -10 -18 -9 -32 6 -9 10 -12 15 -5 11
6 -3 14 -2 18 4 8 12 22 13 29 1z m-305 -58 c-29 -49 -29 -49 -29 -32 0 13 38
69 48 69 2 0 -7 -17 -19 -37z m4711 -293 l-1 -330 -32 -1 c-109 -1 -250 -18
-258 -30 -5 -9 -7 -3 -4 16 2 17 4 93 5 170 2 144 4 155 15 72 l6 -48 57 5
c31 3 65 5 75 5 12 1 17 10 18 34 l1 32 7 -30 c5 -26 10 -30 41 -30 l35 0 2
67 3 66 -98 -4 c-53 -3 -111 -9 -129 -13 -43 -12 -43 -12 -44 219 -1 97 1 120
9 120 5 0 9 -33 10 -72 1 -43 6 -74 12 -76 8 -3 8 -8 0 -17 -6 -8 -10 -41 -8
-77 3 -63 3 -63 33 -63 21 0 33 7 42 25 l13 25 0 -23 c0 -21 4 -23 36 -20 l36
3 2 60 c1 33 -2 65 -6 72 -5 6 -5 14 1 17 6 4 8 13 4 21 -3 8 -1 15 5 15 5 0
12 -9 15 -20 4 -15 14 -20 36 -20 37 0 54 31 49 88 -4 42 -32 57 -71 37 -21
-11 -26 -11 -31 1 -4 9 -24 13 -71 13 -37 -1 -69 2 -73 5 -3 3 47 6 112 5 64
-1 120 1 123 5 4 3 10 6 15 6 4 0 8 -148 8 -330z m-4571 317 c-2 -1 -14 -11
-26 -21 -13 -11 -23 -16 -23 -13 0 10 31 37 42 37 6 0 9 -1 7 -3z m5073 -70
c-3 -48 0 -66 12 -76 26 -21 36 -3 36 65 0 51 3 64 15 64 12 0 13 -4 7 -17 -8
-16 -10 -89 -2 -118 1 -5 -1 -21 -6 -34 l-7 -25 -9 23 c-9 27 -41 25 -46 -3
-2 -10 -1 -43 3 -73 5 -43 10 -54 23 -51 12 2 19 17 23 48 6 41 6 42 8 10 2
-45 13 -63 37 -58 14 2 21 15 25 43 l6 40 2 -42 c1 -41 3 -43 30 -43 17 0 32
4 35 9 3 5 11 75 18 155 7 80 16 146 21 146 9 0 3 -637 -6 -646 -3 -3 -55 -7
-115 -9 l-110 -3 -8 27 c-4 14 -8 98 -10 186 -1 88 -5 224 -9 303 -7 136 -7
142 12 142 17 0 19 -6 15 -63z m149 49 c-8 -9 -12 -43 -10 -88 1 -40 -4 -84
-10 -98 -11 -23 -11 -23 -7 -2 2 12 -2 29 -10 36 -9 10 -10 16 -3 18 6 2 14
36 17 76 3 55 8 72 20 72 11 0 12 -3 3 -14z m-820 -120 c20 -13 20 -13 -1 -19
-12 -3 -20 -14 -21 -29 l-1 -23 -7 24 c-3 13 -15 28 -26 32 -19 7 -19 8 3 8
19 1 22 7 24 49 1 43 2 44 5 10 3 -23 12 -43 24 -52z m-3280 -113 c0 -81 1
-226 2 -322 l2 -174 -52 -4 c-39 -3 -53 -1 -53 9 -1 7 -3 117 -5 243 -2 127
-7 262 -10 301 l-6 70 -112 0 -112 -1 -1 -295 c-1 -162 -2 -303 -3 -312 -1
-15 -11 -18 -56 -18 l-55 0 -2 43 c-3 92 3 310 9 320 10 16 22 -24 16 -53 -7
-37 13 -80 37 -80 17 0 20 6 20 44 0 25 -5 48 -10 51 -7 4 -7 12 0 25 20 37
12 59 -22 62 -32 3 -33 4 -36 55 -3 49 -2 51 19 46 20 -6 21 -7 5 -19 -14 -9
-16 -20 -11 -43 11 -53 65 -35 65 21 0 19 -5 28 -16 28 -13 0 -14 3 -5 14 7 8
11 30 9 48 -3 29 -6 33 -33 33 -23 1 -31 6 -33 22 -4 26 0 26 271 31 l178 3 0
-148z m-1541 97 c0 -5 -13 -10 -30 -10 -30 0 -30 -1 -32 -57 -2 -89 -2 -109 5
-233 l6 -115 37 -3 c21 -2 40 2 44 8 9 14 50 -3 50 -20 0 -13 -146 -13 -171 0
-18 10 -18 13 -4 33 17 24 20 67 5 67 -6 0 -5 10 2 26 9 20 9 30 0 45 -7 10
-12 24 -12 31 0 9 3 8 10 -2 7 -10 10 23 10 102 0 101 2 118 18 127 22 13 62
14 62 1z m5940 -50 c0 -5 -4 -10 -10 -10 -5 0 -10 5 -10 10 0 6 5 10 10 10 6
0 10 -4 10 -10z m-82 -159 c3 -10 -2 -11 -19 -6 -39 12 -48 27 -15 23 16 -2
31 -9 34 -17z m59 13 c-3 -3 -12 -4 -19 -1 -8 3 -5 6 6 6 11 1 17 -2 13 -5z
m-1120 -36 c-3 -8 -6 -5 -6 6 -1 11 2 17 5 13 3 -3 4 -12 1 -19z m0 -40 c-3
-8 -6 -5 -6 6 -1 11 2 17 5 13 3 -3 4 -12 1 -19z m1128 2 c14 -6 4 -9 -35 -8
-42 0 -49 2 -30 8 32 10 41 10 65 0z m63 -62 c-3 -7 -15 -15 -28 -16 -21 -3
-22 -2 -11 12 16 19 44 21 39 4z m-5721 -80 c40 -9 53 -17 53 -31 0 -10 8 -20
18 -23 31 -10 45 -20 56 -40 6 -10 15 -22 21 -26 21 -15 -5 -18 -34 -4 -16 9
-41 16 -54 16 -32 0 -51 24 -43 55 5 21 3 25 -16 26 -65 4 -88 12 -88 30 0 12
24 11 87 -3z m273 -73 c0 -8 -4 -15 -10 -15 -5 0 -10 7 -10 15 0 8 5 15 10 15
6 0 10 -7 10 -15z m5378 -15 c4 0 7 -3 7 -7 0 -5 4 -14 9 -22 6 -10 4 -12 -10
-8 -48 14 -117 19 -110 8 4 -6 2 -11 -4 -11 -15 0 -4 51 12 61 6 4 28 1 50 -7
21 -7 42 -13 46 -14z m-478 -20 c0 -11 -2 -20 -4 -20 -2 0 -6 9 -9 20 -3 11
-1 20 4 20 5 0 9 -9 9 -20z m40 6 c0 -3 -4 -8 -10 -11 -5 -3 -10 -1 -10 4 0 6
5 11 10 11 6 0 10 -2 10 -4z m-440 -36 c0 -6 10 -14 22 -19 18 -6 13 -9 -27
-14 -38 -6 -52 -3 -67 10 -15 14 -19 14 -16 3 2 -9 -3 -14 -11 -12 -8 2 -18
-3 -22 -10 -6 -10 -14 -7 -31 11 -13 13 -18 21 -13 19 6 -3 42 0 80 7 39 7 73
14 78 14 4 1 7 -4 7 -9z m700 -5 c-14 -8 -43 -14 -65 -14 -39 1 -39 1 15 14
74 17 79 17 50 0z m-4328 -1 c3 -3 4 -14 1 -25 -5 -17 -15 -19 -94 -19 -82 0
-89 2 -89 20 0 17 8 20 73 23 39 1 79 4 88 5 9 1 18 -1 21 -4z m893 -14 c3 -5
2 -10 -4 -10 -5 0 -13 5 -16 10 -3 6 -2 10 4 10 5 0 13 -4 16 -10z m2509 2
c-6 -4 -14 -15 -17 -26 -5 -13 -13 -17 -30 -12 -12 3 -30 6 -40 6 -37 0 -9 25
34 31 24 3 49 7 54 7 6 1 5 -1 -1 -6z m811 -2 c3 -5 2 -10 -4 -10 -5 0 -13 5
-16 10 -3 6 -2 10 4 10 5 0 13 -4 16 -10z m433 3 c-16 -2 -40 -2 -55 0 -16 2
-3 4 27 4 30 0 43 -2 28 -4z m-5948 -48 c74 -3 186 -2 248 2 100 7 112 7 112
-8 0 -15 -26 -16 -267 -14 -148 2 -293 7 -323 11 l-55 9 45 6 c25 4 59 5 75 3
17 -2 91 -6 165 -9z m4876 -42 c-10 -10 -19 5 -10 18 6 11 8 11 12 0 2 -7 1
-15 -2 -18z m111 21 c-3 -3 -12 -4 -19 -1 -8 3 -5 6 6 6 11 1 17 -2 13 -5z
m-3137 -21 c0 -10 -7 -27 -15 -37 -15 -19 -15 -19 -15 1 0 28 10 53 21 53 5 0
9 -8 9 -17z m2936 2 c4 -10 13 -13 25 -10 16 5 19 1 19 -24 0 -17 -5 -31 -11
-31 -5 0 -7 5 -4 10 11 18 -5 32 -22 19 -17 -15 -52 -19 -59 -8 -2 4 5 13 16
19 17 9 19 14 9 26 -9 11 -8 14 5 14 9 0 19 -7 22 -15z m1216 -4 c9 -11 14
-22 11 -25 -13 -13 -28 -5 -40 19 -14 31 4 35 29 6z m-2708 -45 c31 -53 31
-51 6 -53 -11 -1 -32 9 -47 23 -14 13 -33 23 -42 23 -12 -1 -11 -3 3 -6 15 -4
16 -7 5 -14 -11 -7 -11 -9 4 -9 9 0 17 -4 17 -10 0 -5 -11 -10 -24 -10 -14 0
-28 5 -31 10 -3 6 -15 10 -25 10 -10 0 -23 8 -29 18 -8 14 -13 15 -30 5 -29
-18 -41 -16 -41 7 0 18 7 20 65 20 37 0 65 4 65 10 0 6 11 10 24 10 14 0 28 5
31 10 9 15 20 5 49 -44z m1757 28 c9 -11 8 -18 -1 -29 -10 -12 -10 -15 4 -15
9 0 16 -7 16 -16 0 -14 2 -14 22 0 19 14 25 14 44 1 19 -12 24 -12 34 0 18 22
35 18 48 -10 16 -36 15 -65 -3 -65 -24 0 -17 -17 10 -24 16 -4 25 -13 25 -26
0 -25 -17 -26 -23 -2 -4 15 -6 14 -12 -5 -6 -20 -13 -22 -76 -20 -38 1 -69 4
-69 7 0 5 -94 4 -115 -1 -5 -1 10 -5 35 -10 39 -6 35 -7 -27 -5 -59 1 -69 -1
-52 -10 19 -10 18 -11 -10 -11 -20 0 -31 5 -31 14 0 8 -5 11 -10 8 -6 -4 -8
-10 -5 -15 3 -5 1 -11 -4 -14 -5 -3 -11 3 -14 14 -5 18 -8 19 -32 8 -18 -8
-28 -9 -33 -1 -4 6 -22 8 -39 6 -18 -3 -31 -9 -28 -13 3 -4 -6 -10 -20 -12
-14 -3 -25 -1 -25 3 0 5 -7 6 -15 3 -9 -4 -15 0 -15 10 0 9 -4 16 -9 16 -5 0
-17 3 -27 7 -11 4 -15 2 -11 -4 4 -6 -15 -12 -50 -16 -32 -3 -58 -5 -60 -4 -1
2 2 9 8 17 8 13 10 13 19 0 8 -12 10 -11 10 8 0 16 -4 21 -12 16 -10 -6 -10
-5 -1 8 15 18 8 28 -21 29 -12 0 -15 3 -8 6 6 2 12 16 12 29 0 15 6 24 15 24
18 0 19 -12 4 -27 -6 -6 -8 -16 -4 -23 10 -17 35 7 35 35 0 12 6 28 14 34 11
10 17 7 30 -11 l16 -22 0 22 c0 19 5 22 40 22 36 0 52 11 33 23 -5 2 -2 2 5 0
8 -1 21 -3 30 -3 14 -1 14 -3 -3 -13 -18 -11 -16 -12 20 -17 32 -5 43 -2 57
15 14 16 20 18 36 8 15 -9 22 -9 31 0 9 9 14 8 21 -3 9 -13 14 -52 11 -72 0
-5 4 -8 9 -8 6 0 10 20 10 45 0 25 5 45 10 45 6 0 10 7 10 15 0 19 46 20 53 1
3 -8 1 -16 -4 -18 -15 -5 1 -38 18 -38 10 0 14 7 10 20 -3 11 -2 20 3 20 4 0
11 -12 14 -26 9 -33 29 -18 29 21 0 33 -9 41 -28 25 -13 -11 -15 -8 -15 17 0
27 3 30 25 26 13 -3 30 -11 36 -19z m-3944 4 c98 -1 189 -4 203 -9 14 -4 -82
-7 -212 -7 -131 0 -238 3 -238 7 0 16 15 21 41 16 15 -4 108 -7 206 -7z m4123
-8 c0 -13 -6 -20 -17 -19 -11 0 -13 3 -5 6 6 2 12 11 12 19 0 8 2 14 5 14 3 0
5 -9 5 -20z m-3817 3 c-13 -2 -33 -2 -45 0 -13 2 -3 4 22 4 25 0 35 -2 23 -4z
m352 -13 c3 -5 1 -10 -4 -10 -6 0 -11 5 -11 10 0 6 2 10 4 10 3 0 8 -4 11 -10z
m3325 -10 c0 -11 -4 -20 -10 -20 -5 0 -10 9 -10 20 0 11 5 20 10 20 6 0 10 -9
10 -20z m-2485 -6 c13 -3 26 -15 28 -26 4 -13 11 -18 20 -15 8 3 19 2 26 -2 6
-4 -6 -8 -29 -9 -22 -1 -40 2 -40 8 0 5 -13 7 -30 4 -28 -6 -30 -5 -30 26 0
25 3 31 16 26 9 -3 26 -9 39 -12z m385 -4 c0 -5 -5 -10 -11 -10 -5 0 -7 5 -4
10 3 6 8 10 11 10 2 0 4 -4 4 -10z m2160 0 c0 -5 -5 -10 -11 -10 -5 0 -7 5 -4
10 3 6 8 10 11 10 2 0 4 -4 4 -10z m-2705 -10 c-3 -5 -18 -9 -33 -9 l-27 1 30
8 c17 4 31 8 33 9 2 0 0 -3 -3 -9z m425 -3 c0 -7 9 -19 20 -27 19 -14 19 -15
3 -22 -10 -3 -27 -7 -38 -7 -18 0 -18 1 -4 12 9 7 14 18 12 25 -7 18 -31 15
-29 -4 0 -9 -6 -19 -14 -21 -12 -4 -13 -3 -1 5 7 5 10 15 7 21 -4 6 -4 16 -1
21 9 15 45 12 45 -3z m2431 -19 c0 -13 3 -17 6 -10 2 6 10 12 16 12 8 0 7 -4
-1 -12 -7 -7 -13 -21 -13 -32 -1 -17 -2 -18 -6 -3 -5 21 -22 22 -29 2 -4 -8
-12 -15 -20 -15 -10 0 -12 8 -7 30 3 19 1 30 -6 30 -6 0 -11 5 -11 10 0 6 16
10 35 10 29 0 35 -4 36 -22z m-1024 -25 c-3 -10 -5 -4 -5 12 0 17 2 24 5 18 2
-7 2 -21 0 -30z m-837 17 c0 -5 -4 -10 -10 -10 -5 0 -10 5 -10 10 0 6 5 10 10
10 6 0 10 -4 10 -10z m685 -81 c-16 -5 -36 -7 -43 -4 -7 2 -23 0 -37 -5 -14
-5 -25 -7 -25 -4 0 11 47 23 90 23 42 -1 43 -1 15 -10z m220 -49 c17 -7 24 -7
20 0 -4 6 13 9 44 8 28 -1 51 -6 51 -10 0 -4 -7 -8 -16 -8 -9 0 -14 -6 -11
-13 3 -8 0 -14 -7 -14 -6 0 -25 -3 -41 -6 -27 -7 -28 -6 -12 6 24 19 21 25 -7
20 -14 -3 -26 -11 -28 -19 -2 -10 -8 -9 -27 5 -13 10 -21 23 -17 30 9 14 17
14 51 1z m-101 -19 c17 -19 15 -41 -3 -41 -5 0 -19 11 -32 24 -13 12 -31 26
-39 29 -8 3 1 6 21 6 24 1 42 -6 53 -18z m33 -23 c-3 -7 -5 -2 -5 12 0 14 2
19 5 13 2 -7 2 -19 0 -25z m-183 6 c8 -21 1 -28 -18 -21 -9 4 -13 13 -10 22 8
20 20 19 28 -1z m66 -4 c12 -8 9 -10 -13 -10 -16 0 -26 4 -22 10 8 12 16 12
35 0z m403 3 c-7 -2 -19 -2 -25 0 -7 3 -2 5 12 5 14 0 19 -2 13 -5z m754 1
c-3 -3 -12 -4 -19 -1 -8 3 -5 6 6 6 11 1 17 -2 13 -5z m-1367 -24 c0 -5 -6
-10 -14 -10 -8 0 -16 -6 -19 -14 -6 -15 -57 -28 -57 -15 0 5 10 9 23 10 12 0
16 3 10 6 -22 8 -14 21 15 26 15 2 30 5 35 6 4 0 7 -3 7 -9z m-80 -9 c0 -5 -7
-11 -14 -14 -10 -4 -13 -1 -9 9 6 15 23 19 23 5z m-60 -31 c13 -8 13 -10 -2
-10 -9 0 -20 5 -23 10 -8 13 5 13 25 0z"/>
<path d="M2310 4661 c0 -6 4 -13 10 -16 6 -3 7 1 4 9 -7 18 -14 21 -14 7z"/>
<path d="M6210 4746 c-29 -13 -29 -41 0 -49 19 -5 90 14 90 24 0 24 -57 39
-90 25z"/>
<path d="M5637 3443 c-4 -3 -7 -32 -7 -64 0 -55 2 -59 26 -65 34 -9 40 0 48
74 l6 62 -33 0 c-19 0 -37 -3 -40 -7z"/>
<path d="M5630 3108 c0 -18 3 -50 7 -71 5 -34 9 -38 32 -35 25 3 26 5 24 62
-2 60 -11 76 -45 76 -14 0 -18 -8 -18 -32z"/>
<path d="M5556 3123 c-4 -4 -26 -6 -50 -4 -59 3 -65 -15 -39 -111 5 -20 57
-25 68 -8 4 6 13 7 22 2 8 -5 26 -7 39 -4 22 4 24 9 24 68 0 64 0 64 -28 64
-16 0 -32 -3 -36 -7z"/>
<path d="M6298 3271 c-26 -4 -50 -10 -54 -14 -4 -4 -6 -35 -5 -69 1 -35 2 -83
2 -108 -1 -78 8 -110 29 -110 10 0 21 8 23 18 4 15 5 15 6 0 1 -20 39 -34 53
-20 6 6 25 8 43 5 18 -3 35 -1 39 5 11 18 14 276 4 290 -11 13 -61 14 -140 3z
m13 -142 c28 -14 49 -5 50 23 1 21 2 21 6 3 3 -11 10 -23 15 -26 21 -14 -4
-29 -38 -23 -32 5 -35 3 -41 -28 l-7 -33 -7 30 c-4 17 -6 59 -6 95 0 52 1 55
4 18 3 -35 9 -51 24 -59z"/>
<path d="M2207 3453 c-16 -4 -18 -11 -13 -46 7 -46 8 -69 5 -107 -3 -42 0 -50
20 -50 17 0 19 8 20 83 0 45 2 91 3 101 3 21 -7 26 -35 19z"/>
<path d="M2206 3215 c-10 -28 5 -75 25 -75 11 0 19 3 19 8 1 4 3 24 6 45 5 34
4 37 -19 37 -14 0 -27 -7 -31 -15z"/>
<path d="M2202 3093 c2 -28 8 -39 22 -41 24 -5 34 11 28 48 -3 24 -9 30 -29
30 -22 0 -24 -4 -21 -37z"/>
<path d="M1855 3062 c-3 -3 -5 -20 -5 -39 0 -26 5 -36 23 -43 15 -6 17 -9 6
-9 -19 -1 -30 -31 -22 -62 4 -14 12 -19 27 -17 25 4 34 45 26 123 -4 43 -8 50
-27 51 -12 1 -25 -1 -28 -4z"/>
<path d="M2202 2963 c3 -83 14 -98 52 -70 22 16 14 57 -11 57 -14 0 -14 3 2
20 15 17 16 24 7 45 -7 15 -20 25 -32 25 -19 0 -20 -6 -18 -77z"/>
<path d="M4000 2742 c0 -12 19 -26 26 -19 2 2 -2 10 -11 17 -9 8 -15 8 -15 2z"/>
<path d="M5530 2670 c0 -5 9 -10 20 -10 11 0 20 5 20 10 0 6 -9 10 -20 10 -11
0 -20 -4 -20 -10z"/>
<path d="M5920 2654 c0 -8 5 -12 10 -9 6 4 8 11 5 16 -9 14 -15 11 -15 -7z"/>
<path d="M5832 2616 c7 -8 17 -12 22 -9 4 3 2 9 -5 14 -22 13 -31 11 -17 -5z"/>
<path d="M5905 2610 c-3 -5 -1 -10 4 -10 6 0 11 5 11 10 0 6 -2 10 -4 10 -3 0
-8 -4 -11 -10z"/>
<path d="M6002 2588 c7 -19 38 -22 38 -4 0 10 -9 16 -21 16 -12 0 -19 -5 -17
-12z"/>
<path d="M5475 2580 c-3 -5 -4 -10 -1 -10 2 0 12 -3 20 -6 12 -5 15 -2 10 10
-7 18 -20 21 -29 6z"/>
<path d="M3413 2725 c0 -20 29 -15 34 5 4 13 3 13 -6 0 -7 -10 -11 -11 -11 -2
0 6 -4 12 -8 12 -5 0 -9 -7 -9 -15z"/>
<path d="M1420 5195 c-47 -30 -90 -59 -97 -65 -7 -5 -16 -10 -20 -10 -5 0 -14
-9 -21 -21 -10 -15 3 -10 45 19 32 21 84 54 115 71 54 31 90 61 72 61 -5 0
-47 -25 -94 -55z"/>
<path d="M1582 5227 c15 -15 30 -27 33 -27 5 0 12 -6 91 -80 26 -25 51 -44 56
-42 4 1 8 -4 8 -12 0 -19 14 -28 34 -20 12 5 0 18 -47 55 -34 27 -79 64 -100
81 -21 18 -52 41 -70 52 l-32 19 27 -26z"/>
<path d="M1233 5085 c-7 -21 4 -32 19 -17 9 9 9 12 -1 12 -7 0 -9 5 -6 10 3 6
4 10 0 10 -3 0 -8 -7 -12 -15z"/>
<path d="M1180 5056 c0 -9 30 -14 35 -6 4 6 -3 10 -14 10 -12 0 -21 -2 -21 -4z"/>
<path d="M1138 5027 c-7 -7 -29 -22 -48 -35 -19 -12 -30 -22 -23 -22 16 0 103
53 103 62 0 12 -17 9 -32 -5z"/>
<path d="M1013 4950 c-13 -5 -23 -12 -23 -15 0 -9 16 -5 36 10 22 16 19 18
-13 5z"/>
<path d="M931 4899 c-13 -10 -19 -19 -15 -19 13 1 48 29 43 34 -2 2 -15 -4
-28 -15z"/>
<path d="M865 4860 c-8 -13 5 -13 25 0 13 8 13 10 -2 10 -9 0 -20 -4 -23 -10z"/>
<path d="M672 4749 c-18 -12 -31 -23 -29 -25 5 -6 65 25 72 37 10 15 -8 10
-43 -12z"/>
<path d="M550 4677 c-48 -23 -54 -28 -39 -39 10 -6 8 -8 -8 -6 -12 2 -22 0
-23 -4 -1 -26 3 -27 30 -13 21 11 27 20 23 32 -5 12 -2 15 13 12 10 -3 27 3
37 13 20 21 6 23 -33 5z"/>
<path d="M3120 4591 c0 -5 9 -7 20 -4 11 3 20 7 20 9 0 2 -9 4 -20 4 -11 0
-20 -4 -20 -9z"/>
<path d="M3390 4491 c0 -4 11 -6 25 -3 14 2 25 6 25 8 0 2 -11 4 -25 4 -14 0
-25 -4 -25 -9z"/>
<path d="M3467 4479 c3 -11 14 -19 25 -19 25 0 19 21 -9 31 -17 6 -20 4 -16
-12z"/>
<path d="M3260 4450 c0 -5 4 -10 9 -10 6 0 13 5 16 10 3 6 -1 10 -9 10 -9 0
-16 -4 -16 -10z"/>
<path d="M2970 4365 c0 -9 62 -36 73 -31 7 2 5 5 -4 5 -9 1 -19 8 -23 16 -5
13 -46 22 -46 10z"/>
<path d="M2886 4331 c-4 -5 3 -7 14 -4 23 6 26 13 6 13 -8 0 -17 -4 -20 -9z"/>
<path d="M3335 4300 c3 -5 8 -10 11 -10 2 0 4 5 4 10 0 6 -5 10 -11 10 -5 0
-7 -4 -4 -10z"/>
<path d="M3998 4303 c6 -2 18 -2 25 0 6 3 1 5 -13 5 -14 0 -19 -2 -12 -5z"/>
<path d="M4464 4278 l-19 -23 25 20 c14 11 27 21 29 22 2 2 0 3 -6 3 -5 0 -18
-10 -29 -22z"/>
<path d="M4210 4271 c8 -5 26 -12 40 -15 l25 -7 -25 15 c-14 9 -32 15 -40 15
-13 0 -13 -1 0 -8z"/>
<path d="M3885 4220 c-3 -5 1 -10 10 -10 9 0 13 5 10 10 -3 6 -8 10 -10 10 -2
0 -7 -4 -10 -10z"/>
<path d="M6243 4088 c-57 -19 -35 -58 32 -58 49 0 79 18 69 43 -3 9 -14 17
-24 17 -10 0 -24 2 -32 4 -7 2 -28 -1 -45 -6z"/>
<path d="M6610 4069 c0 -5 5 -7 10 -4 6 3 10 8 10 11 0 2 -4 4 -10 4 -5 0 -10
-5 -10 -11z"/>
<path d="M6482 4013 c-20 -7 -38 -13 -39 -13 -10 0 0 -22 18 -38 20 -20 20
-20 -25 -26 -75 -12 -70 -66 6 -66 28 0 39 -4 35 -12 -2 -7 -1 -23 4 -35 7
-21 15 -23 73 -23 69 0 96 14 96 50 0 10 9 22 20 25 23 7 27 47 6 64 -14 12
-50 10 -62 -2 -4 -4 -18 -7 -31 -7 -19 0 -23 -5 -23 -31 0 -16 -4 -28 -9 -25
-4 3 -6 17 -3 31 5 27 59 60 94 58 10 -1 18 2 18 8 0 5 -9 9 -19 9 -13 0 -21
8 -23 23 -3 19 -9 22 -51 22 -27 1 -65 -5 -85 -12z m58 -73 c0 -5 -4 -10 -10
-10 -5 0 -10 5 -10 10 0 6 5 10 10 10 6 0 10 -4 10 -10z"/>
<path d="M3770 3998 c0 -19 -2 -20 -10 -8 -8 12 -10 10 -10 -11 0 -21 4 -25
23 -23 12 1 26 3 32 3 5 1 4 6 -3 13 -7 7 -12 20 -12 30 0 10 -4 18 -10 18 -5
0 -10 -10 -10 -22z"/>
<path d="M5942 3948 c-31 -15 -25 -49 9 -59 44 -11 124 1 137 22 22 35 5 49
-62 48 -33 0 -71 -5 -84 -11z"/>
<path d="M3848 3913 c7 -3 16 -2 19 1 4 3 -2 6 -13 5 -11 0 -14 -3 -6 -6z"/>
<path d="M6795 3784 c-6 -9 -22 -18 -37 -19 -48 -5 -68 -16 -68 -36 0 -11 7
-22 15 -25 12 -5 13 -10 4 -20 -9 -11 -9 -17 0 -28 9 -11 9 -16 0 -22 -7 -4
-14 -3 -16 2 -4 12 -61 6 -69 -7 -3 -5 -2 -18 1 -29 5 -16 15 -20 48 -20 37
-1 40 -2 24 -14 -39 -30 15 -63 89 -54 24 2 29 7 27 30 -1 20 4 28 23 32 13 4
24 12 24 20 0 14 -31 46 -46 46 -5 0 -10 11 -10 24 -2 24 -1 24 30 11 17 -7
38 -16 47 -18 27 -9 31 -47 6 -57 -16 -7 -3 -9 43 -7 l65 2 1 35 c1 54 -3 58
-46 50 -37 -7 -38 -6 -44 23 -4 17 -2 35 3 40 14 14 1 45 -22 51 -41 11 -82 6
-92 -10z m19 -69 c-4 -8 -8 -15 -10 -15 -2 0 -4 7 -4 15 0 8 4 15 10 15 5 0 7
-7 4 -15z m-34 -79 c0 -9 -40 -13 -46 -5 -3 5 6 9 20 9 14 0 26 -2 26 -4z
m-25 -56 c3 -5 -1 -10 -9 -10 -9 0 -16 5 -16 10 0 6 4 10 9 10 6 0 13 -4 16
-10z"/>
<path d="M6880 3491 c0 -5 5 -11 11 -13 9 -3 9 -10 0 -26 -9 -17 -9 -22 1 -22
8 0 6 -5 -4 -11 -32 -18 -19 -24 47 -21 l65 4 0 49 0 49 -60 0 c-33 0 -60 -4
-60 -9z"/>
<path d="M6910 3297 c-40 -7 -50 -12 -36 -17 14 -4 16 -9 8 -14 -19 -11 -14
-26 6 -19 15 6 15 5 4 -10 -12 -14 -9 -16 20 -21 70 -10 75 -8 82 35 4 22 4
44 1 50 -7 10 -10 10 -85 -4z"/>
<path d="M6735 3236 c-24 -17 -13 -45 17 -44 53 1 78 10 78 28 0 31 -61 41
-95 16z"/>
<path d="M6885 2680 c-3 -5 -1 -10 4 -10 6 0 11 5 11 10 0 6 -2 10 -4 10 -3 0
-8 -4 -11 -10z"/>
<path d="M1660 2669 c-22 -6 -20 -7 13 -8 38 -1 47 3 25 11 -7 3 -24 1 -38 -3z"/>
<path d="M1735 2670 c-17 -6 -16 -7 8 -12 15 -3 27 -2 27 3 0 13 -14 17 -35 9z"/>
<path d="M1805 2660 c-3 -5 1 -10 10 -10 9 0 13 5 10 10 -3 6 -8 10 -10 10 -2
0 -7 -4 -10 -10z"/>
<path d="M1840 2666 c0 -2 7 -6 15 -10 8 -3 15 -1 15 4 0 6 -7 10 -15 10 -8 0
-15 -2 -15 -4z"/>
<path d="M1906 2663 c-13 -13 52 -32 81 -23 l28 8 -33 1 c-18 1 -41 5 -51 11
-10 5 -21 6 -25 3z"/>
<path d="M6882 2620 c0 -14 2 -19 5 -12 2 6 2 18 0 25 -3 6 -5 1 -5 -13z"/>
<path d="M2058 2623 c7 -3 16 -2 19 1 4 3 -2 6 -13 5 -11 0 -14 -3 -6 -6z"/>
<path d="M2410 2610 c20 -13 50 -13 50 0 0 6 -15 10 -32 10 -25 0 -29 -3 -18
-10z"/>
<path d="M5018 2403 c7 -3 16 -2 19 1 4 3 -2 6 -13 5 -11 0 -14 -3 -6 -6z"/>
<path d="M486 2235 c4 -8 8 -15 10 -15 2 0 4 7 4 15 0 8 -4 15 -10 15 -5 0 -7
-7 -4 -15z"/>
<path d="M6541 2034 c0 -11 3 -14 6 -6 3 7 2 16 -1 19 -3 4 -6 -2 -5 -13z"/>
<path d="M1017 2009 c-10 -6 -27 -9 -37 -6 -11 3 -21 0 -22 -5 -2 -5 -26 -14
-53 -19 -33 -6 -60 -19 -81 -40 -29 -28 -31 -35 -27 -77 3 -26 7 -49 9 -51 2
-3 17 0 32 5 20 7 27 16 27 36 0 33 28 64 66 72 33 6 51 21 62 49 4 11 16 21
27 24 11 3 20 9 20 14 0 11 -1 11 -23 -2z"/>
<path d="M1022 1984 c-23 -16 -29 -34 -13 -34 6 0 22 11 37 25 30 28 13 35
-24 9z"/>
<path d="M637 1933 c-4 -3 -7 -11 -7 -17 0 -7 3 -6 8 1 5 7 40 13 87 16 l80 3
-81 2 c-44 1 -84 -1 -87 -5z"/>
<path d="M1115 1928 c-38 -4 -81 -8 -94 -9 -26 -1 -101 -44 -101 -58 0 -4 -10
-13 -22 -19 -21 -10 -20 -11 7 -5 17 3 37 12 46 19 23 21 402 41 430 23 11 -7
9 -9 -6 -10 -17 -1 -16 -2 5 -9 41 -13 64 -12 52 3 -8 9 1 12 39 14 27 1 49
-2 49 -7 0 -6 10 -10 23 -9 21 0 21 1 2 9 -14 7 -3 9 40 9 33 0 83 0 110 1 67
1 146 -6 168 -15 9 -4 24 -2 32 5 21 18 155 27 155 11 0 -8 8 -10 21 -6 29 10
85 9 101 -1 7 -5 51 -9 98 -10 47 -1 103 -4 125 -8 22 -4 93 -9 158 -11 99 -3
117 -1 117 11 0 12 7 10 32 -7 17 -13 28 -18 24 -11 -4 7 -2 12 6 12 9 0 9 3
-2 10 -11 7 -5 10 23 10 20 0 40 1 45 2 4 1 22 5 41 9 44 10 83 -7 59 -25 -12
-9 1 -12 59 -14 78 -3 84 0 112 49 25 42 40 41 -945 44 -517 1 -970 -2 -1009
-7z m1209 -13 c-4 -10 -10 -12 -18 -7 -6 5 -18 12 -26 15 -8 3 -1 6 17 6 25 1
31 -2 27 -14z"/>
<path d="M3839 1939 c-8 -51 -6 -60 21 -79 15 -11 36 -20 47 -21 16 0 16 -1
-2 -9 -20 -9 -20 -9 0 -9 11 -1 30 -8 43 -16 12 -9 29 -15 38 -13 9 2 19 -2
21 -8 2 -8 -11 -8 -45 -1 -65 14 -109 -4 -109 -44 0 -18 8 -31 21 -38 21 -9
21 -10 1 -11 -11 -1 -31 -15 -44 -32 -20 -25 -22 -32 -10 -39 8 -5 25 -7 39
-4 23 5 23 4 8 -8 -19 -15 -14 -27 11 -27 9 0 25 -12 35 -27 9 -16 15 -21 13
-11 -9 28 16 51 52 46 20 -3 30 -1 28 6 -2 6 -17 10 -33 8 -16 -2 -41 1 -54 7
-25 10 -13 12 103 15 42 2 66 56 34 77 -5 4 15 7 44 8 84 1 134 54 69 72 -14
4 -20 8 -15 10 25 6 32 7 59 8 23 1 26 4 17 14 -22 28 19 36 63 14 14 -8 23
-17 19 -20 -13 -13 21 -38 44 -32 13 3 23 1 23 -4 0 -4 11 -8 25 -8 15 0 22 4
18 10 -4 6 0 8 11 4 10 -4 23 -7 29 -7 8 0 8 -3 0 -11 -7 -7 -51 -14 -100 -16
-48 -2 -94 -6 -101 -8 -24 -8 -4 -22 26 -17 40 5 120 -17 101 -29 -10 -6 -10
-9 -1 -9 29 0 9 -19 -28 -25 -22 -4 -40 -10 -40 -14 0 -5 11 -6 25 -3 17 3 25
0 25 -9 0 -22 -17 -42 -28 -35 -8 5 -25 -53 -17 -62 1 -1 23 2 49 8 47 10 96
5 96 -11 0 -13 -34 -18 -140 -21 -93 -3 -95 -3 -93 20 2 17 -2 22 -20 22 -34
0 -40 -11 -16 -28 19 -13 19 -16 5 -37 -9 -14 -12 -26 -6 -30 5 -3 79 -5 164
-4 124 1 156 5 156 15 0 8 7 14 15 14 8 0 14 -6 12 -12 -1 -9 13 -14 41 -16
50 -4 53 -27 4 -27 -41 0 -35 -19 6 -23 24 -2 32 -8 32 -23 0 -21 10 -22 142
-22 43 0 74 5 84 14 11 9 35 13 68 11 28 -2 76 2 106 8 37 7 56 7 58 0 5 -14
32 -12 32 3 -1 17 -22 42 -42 50 -10 3 -18 11 -18 16 0 15 37 23 93 19 49 -3
52 -2 55 22 4 43 -7 48 -116 51 l-102 4 0 -32 c0 -31 2 -33 38 -33 27 0 33 -3
22 -10 -18 -12 -120 -13 -120 -2 0 4 5 13 12 20 8 8 9 18 0 36 -10 23 -9 25
28 31 22 4 56 5 76 3 29 -2 38 1 44 16 6 19 7 19 21 0 11 -15 27 -19 82 -19
49 -1 66 2 63 11 -3 7 4 14 15 17 15 4 17 2 9 -13 -7 -13 -6 -20 6 -24 12 -5
15 1 14 27 -4 60 0 77 15 77 8 0 15 5 15 11 0 5 -4 7 -10 4 -5 -3 -20 3 -32
15 -16 15 -24 17 -29 8 -6 -9 -10 -8 -15 5 -9 24 -27 21 -21 -3 3 -11 1 -20
-3 -20 -5 0 -10 12 -12 27 -3 25 -4 26 -20 10 -21 -21 -38 -22 -38 -2 0 15
-43 21 -116 17 -29 -2 -30 0 -30 33 1 26 5 35 18 35 11 0 15 -6 11 -19 -3 -10
0 -22 5 -25 6 -3 56 -7 111 -7 80 -1 101 -4 106 -17 9 -25 19 -3 16 38 l-2 39
86 -5 c76 -4 86 -2 83 13 -4 19 51 38 66 23 7 -7 6 -10 -2 -10 -9 0 -10 -5 -3
-19 9 -16 14 -17 58 -6 26 7 67 11 91 9 25 -3 42 0 42 6 0 6 -4 9 -9 5 -17
-10 -21 12 -5 26 16 13 20 10 39 -26 3 -6 7 -5 11 3 3 6 13 12 21 12 11 0 13
-3 5 -12 -8 -10 5 -13 58 -13 42 0 74 5 82 13 14 14 52 16 43 2 -8 -12 -13
-12 122 -15 62 -2 115 0 118 4 2 5 -18 6 -45 3 -31 -3 -50 -1 -50 6 0 6 38 10
105 9 58 0 108 2 112 6 8 9 66 9 87 1 9 -3 16 -13 16 -20 0 -12 16 -14 82 -12
l82 3 29 43 c33 49 30 71 -10 71 -396 -5 -2452 -1 -2580 6 -90 4 -163 6 -164
4z m2760 -43 c-11 -9 -59 -15 -59 -7 0 5 12 11 28 13 27 3 39 1 31 -6z m-199
-11 c0 -9 -6 -12 -15 -9 -8 4 -15 10 -15 15 0 5 7 9 15 9 8 0 15 -7 15 -15z
m-1282 -42 c-10 -2 -28 -2 -40 0 -13 2 -5 4 17 4 22 1 32 -1 23 -4z m72 -5 c0
-10 2 -10 8 -2 5 9 11 8 20 -2 11 -12 7 -14 -22 -14 -27 0 -34 3 -30 15 7 18
24 20 24 3z m1250 2 c0 -5 -4 -10 -10 -10 -5 0 -10 5 -10 10 0 6 5 10 10 10 6
0 10 -4 10 -10z m70 0 c0 -5 -7 -10 -15 -10 -8 0 -15 5 -15 10 0 6 7 10 15 10
8 0 15 -4 15 -10z m-2411 -16 c2 -2 -12 -4 -32 -4 -20 0 -37 4 -37 10 0 8 58
3 69 -6z m46 -4 c-3 -5 -13 -6 -21 -3 -12 4 -13 8 -3 14 15 9 32 2 24 -11z
m462 11 c9 -1 8 -8 -2 -28 -8 -15 -13 -29 -11 -31 2 -2 37 1 77 7 61 8 77 8
88 -4 18 -18 12 -25 -31 -35 l-33 -8 33 -1 c53 -2 36 -21 -18 -21 -27 0 -50 5
-50 10 0 6 6 10 13 11 6 0 -4 6 -23 13 -19 7 -54 11 -77 8 -40 -4 -41 -3 -39
22 2 15 -1 29 -5 32 -5 3 -9 11 -9 19 0 13 17 14 87 6z m106 -8 c-7 -2 -19 -2
-25 0 -7 3 -2 5 12 5 14 0 19 -2 13 -5z m304 1 c-3 -3 -12 -4 -19 -1 -8 3 -5
6 6 6 11 1 17 -2 13 -5z m100 0 c-3 -3 -12 -4 -19 -1 -8 3 -5 6 6 6 11 1 17
-2 13 -5z m-1097 -94 c9 -18 8 -20 -15 -20 -23 0 -24 2 -13 20 7 11 14 20 15
20 1 0 7 -9 13 -20z m620 -4 c0 -2 -6 -14 -12 -27 -11 -20 -22 -24 -65 -27
-29 -1 -61 2 -71 7 -13 7 -23 6 -31 -2 -9 -9 -14 -8 -21 3 -16 25 -11 32 18
29 15 -1 35 2 45 6 10 4 30 5 45 2 15 -3 34 -2 42 4 15 9 50 13 50 5z m242
-19 c-3 -12 -7 -16 -10 -9 -2 6 -17 12 -33 12 -42 0 -28 16 14 17 31 1 34 -2
29 -20z m315 -30 c-1 -5 8 -11 21 -12 12 -1 28 -7 33 -12 8 -8 -3 -10 -37 -9
-29 1 -66 -5 -91 -16 -51 -22 -53 -22 -53 -3 0 8 -6 15 -14 15 -8 0 -17 4 -20
8 -2 4 19 6 47 5 43 -3 55 0 66 16 14 19 51 25 48 8z m-327 -36 c-5 -11 -6
-22 -1 -25 5 -3 11 -15 14 -26 4 -15 0 -20 -14 -20 -16 0 -19 7 -19 45 0 34 4
45 15 45 12 0 14 -4 5 -19z m-235 -28 c8 -43 21 -63 42 -63 17 0 33 -16 52
-52 14 -26 18 -28 83 -28 64 0 87 -10 53 -24 -8 -3 -15 0 -15 7 0 6 -8 -4 -19
-23 -17 -33 -22 -35 -77 -41 -33 -3 -63 -7 -69 -10 -5 -2 -12 1 -15 6 -3 6 11
11 30 13 19 2 43 11 53 20 13 12 20 13 29 4 16 -16 28 -15 28 3 0 11 -14 15
-57 16 -32 1 -66 1 -75 0 -10 -1 -18 3 -18 8 0 6 14 11 30 11 20 0 30 5 30 15
0 8 -6 15 -14 15 -7 0 -16 9 -19 21 -5 19 -11 20 -106 15 -88 -5 -101 -4 -101
10 0 12 7 15 31 12 36 -6 54 19 45 63 -5 29 3 35 50 38 18 1 23 -6 29 -36z
m-105 23 c0 -3 -4 -8 -10 -11 -5 -3 -10 -1 -10 4 0 6 5 11 10 11 6 0 10 -2 10
-4z m-140 -46 c0 -11 -4 -20 -9 -20 -5 0 -7 9 -4 20 3 11 7 20 9 20 2 0 4 -9
4 -20z m738 -75 c-3 -3 -9 2 -12 12 -6 14 -5 15 5 6 7 -7 10 -15 7 -18z m66
-17 c7 -5 5 -8 -5 -8 -23 0 -45 26 -27 33 7 2 15 -1 17 -7 2 -6 9 -14 15 -18z
m-107 16 c-3 -3 -12 -4 -19 -1 -8 3 -5 6 6 6 11 1 17 -2 13 -5z m36 -21 c-7
-2 -19 -2 -25 0 -7 3 -2 5 12 5 14 0 19 -2 13 -5z m-233 -81 c0 -4 -9 -8 -20
-9 -11 -1 -20 2 -20 8 0 5 9 9 20 9 11 0 20 -4 20 -8z"/>
<path d="M660 1888 c0 -18 5 -40 11 -48 9 -13 10 -13 8 0 -4 43 1 59 19 53 14
-5 13 -3 -3 10 -29 24 -35 21 -35 -15z"/>
<path d="M1110 1856 c0 -2 11 -6 25 -8 13 -3 22 -1 19 3 -5 9 -44 13 -44 5z"/>
<path d="M685 1821 c-3 -5 -1 -12 5 -16 5 -3 10 1 10 9 0 18 -6 21 -15 7z"/>
<path d="M1273 1806 c-43 -10 -52 -19 -32 -32 6 -3 15 0 20 7 12 19 101 19
116 -1 10 -13 14 -12 32 4 14 13 21 15 21 6 0 -9 4 -9 13 -2 6 6 26 12 42 15
22 3 17 5 -20 7 -98 6 -151 5 -192 -4z"/>
<path d="M1698 1812 c-15 -3 -15 -7 -5 -23 14 -23 33 -24 53 -4 9 8 25 15 37
15 12 0 28 4 35 9 12 7 -81 10 -120 3z"/>
<path d="M1840 1811 c0 -6 35 -10 80 -10 44 0 80 3 80 7 0 4 -36 8 -80 10 -47
2 -80 -1 -80 -7z"/>
<path d="M2024 1809 c-3 -5 57 -9 133 -10 143 0 359 -21 333 -32 -8 -4 -24 -5
-35 -4 -16 2 -19 -3 -17 -25 3 -23 -1 -27 -35 -32 -21 -3 -59 -5 -85 -4 -38 1
-49 5 -54 21 -7 22 2 33 31 40 11 3 -9 5 -45 4 -36 0 -53 -2 -37 -4 22 -4 27
-9 27 -33 0 -26 -4 -29 -37 -32 -36 -3 -38 -5 -35 -33 l3 -30 -107 1 c-87 1
-108 4 -116 18 -6 10 -5 16 2 16 5 0 10 7 10 15 0 11 -11 15 -37 15 -31 0 -34
-2 -21 -12 8 -7 18 -23 21 -35 4 -19 2 -21 -20 -12 -13 5 -44 9 -69 9 -34 0
-44 -4 -44 -16 0 -10 -6 -14 -14 -11 -7 3 -19 0 -25 -6 -8 -8 -11 -4 -11 16 0
15 -4 27 -9 27 -5 0 -10 -27 -10 -61 0 -34 -6 -71 -14 -82 -17 -28 -11 -54 14
-62 20 -7 26 -30 9 -40 -5 -3 -10 -14 -10 -24 0 -11 -9 -21 -21 -24 -12 -3
-18 -10 -15 -15 3 -5 59 -8 131 -5 76 2 125 0 125 -6 0 -5 -22 -8 -50 -6 -27
2 -52 0 -55 -6 -4 -5 -40 -9 -81 -9 -43 0 -74 -4 -74 -10 0 -8 49 -13 141 -14
9 0 16 -5 16 -12 0 -12 -163 -32 -222 -26 -46 4 -168 -17 -177 -31 -4 -7 -8
-22 -8 -35 0 -13 -4 -20 -10 -17 -5 3 -10 16 -10 29 0 32 -29 55 -66 52 -34
-2 -71 -30 -54 -41 5 -3 10 -25 9 -48 0 -23 -3 -36 -6 -29 -2 6 -11 12 -19 12
-8 0 -23 13 -32 30 -20 35 -32 38 -32 10 0 -38 -44 -20 -49 20 -1 14 -3 33 -4
43 -1 9 -6 16 -12 15 -5 -2 -9 -7 -7 -12 7 -22 -24 -24 -48 -3 -22 20 -23 20
-7 1 9 -11 17 -25 17 -31 0 -12 219 -235 305 -311 33 -29 96 -80 140 -113 l81
-61 109 -3 c61 -2 113 -3 118 -4 4 -1 7 -10 7 -21 0 -21 14 -27 24 -11 4 5 0
12 -6 14 -7 3 -1 6 14 6 37 1 45 19 11 24 l-28 4 28 2 c18 0 38 -8 55 -25 l27
-26 -42 5 c-24 3 -43 1 -43 -4 0 -5 6 -9 13 -9 6 0 3 -6 -7 -12 -12 -7 -50 -9
-102 -5 -46 2 -84 4 -84 2 0 -5 146 -100 209 -136 178 -101 260 -139 300 -139
30 0 39 -3 35 -14 -4 -12 21 -25 53 -27 5 0 15 -6 23 -13 8 -8 47 -25 85 -40
39 -15 81 -32 95 -38 42 -18 114 -38 119 -33 2 3 -2 5 -9 5 -7 0 -10 3 -7 6 4
4 13 2 21 -5 20 -17 76 -32 76 -20 0 5 -7 9 -15 9 -8 0 -15 5 -15 10 0 6 14
10 30 10 17 0 30 -4 30 -10 0 -5 7 -10 15 -10 10 0 15 -7 13 -18 -2 -13 5 -18
27 -19 27 -2 28 -2 8 7 -13 5 -22 17 -22 27 1 17 2 17 6 1 7 -28 29 -21 61 20
30 37 57 39 34 2 -10 -17 -7 -19 45 -26 48 -6 58 -4 70 12 7 10 13 23 13 30 0
15 54 26 87 17 20 -4 24 -3 18 7 -5 8 -1 18 10 27 11 7 13 13 7 13 -7 0 -14 0
-17 0 -3 0 -5 -3 -4 -7 2 -15 -31 -22 -57 -12 -16 5 -39 7 -52 4 -14 -3 -29 0
-38 10 -18 18 -21 17 86 21 42 1 80 3 85 4 26 6 75 -1 75 -10 0 -5 -6 -10 -14
-10 -8 0 -17 -7 -20 -16 -4 -9 -13 -14 -21 -10 -8 3 -15 0 -15 -7 0 -9 18 -12
68 -10 156 7 275 24 294 41 15 12 30 13 103 4 47 -6 92 -9 99 -6 12 5 218 11
425 13 19 1 48 -6 65 -14 19 -10 32 -12 36 -5 3 5 41 13 83 16 59 5 81 12 94
27 18 20 17 20 -7 13 -108 -33 -248 -35 -287 -4 -9 7 -18 6 -28 -2 -10 -9 -15
-9 -15 -1 0 6 -9 11 -20 11 -11 0 -20 -4 -20 -9 0 -5 -12 -10 -27 -10 -16 0
-35 -1 -43 -2 -35 -5 -51 2 -48 19 1 9 -1 22 -5 29 -9 14 9 27 24 18 6 -4 8
-13 5 -21 -4 -11 10 -14 77 -14 59 0 78 3 67 10 -11 8 -7 9 15 4 16 -4 36 -13
43 -21 18 -17 26 -17 18 2 -6 17 6 19 51 6 20 -6 35 -6 38 0 4 5 -4 9 -17 9
-13 0 -30 5 -38 10 -11 8 -1 10 35 8 28 -1 65 2 83 6 l32 8 -22 17 -21 18 28
7 c23 6 26 9 14 17 -10 6 -5 9 18 9 17 0 38 -7 47 -15 19 -20 60 -19 77 2 11
13 11 17 2 20 -18 6 -16 23 2 23 8 0 22 -14 30 -30 9 -17 21 -28 26 -24 6 4 7
9 3 13 -5 3 -10 12 -11 19 -2 6 -4 18 -5 25 -2 9 14 11 62 9 36 -1 86 -3 112
-3 27 -1 52 -7 59 -15 15 -18 29 -18 29 -1 0 9 13 14 35 15 26 1 33 -2 29 -13
-5 -11 4 -13 41 -11 26 1 50 7 53 12 8 10 61 12 77 3 19 -11 97 -10 111 2 8 6
25 9 39 7 14 -3 25 -1 25 4 0 6 7 7 16 4 9 -4 23 -1 31 5 11 10 15 8 19 -8 5
-19 7 -19 61 9 30 16 74 42 98 58 24 17 48 30 54 30 6 0 11 5 11 10 0 6 5 10
11 10 15 0 87 51 199 139 130 103 155 126 311 280 120 119 135 137 120 148
-14 11 -14 12 5 13 11 0 31 12 45 27 18 19 19 25 7 20 -10 -3 -20 -2 -23 3 -3
5 7 10 21 12 15 2 37 16 50 33 l23 31 -59 -2 c-69 -1 -87 9 -95 52 l-5 32 82
1 c45 1 83 3 85 5 2 2 -48 7 -112 11 -113 7 -451 -2 -441 -12 3 -3 47 -6 98
-8 58 -1 93 -6 96 -14 5 -15 47 -14 64 2 12 11 98 18 97 7 0 -3 4 -17 10 -32
6 -16 9 -28 8 -29 -1 0 -118 -3 -259 -6 -214 -4 -258 -3 -258 8 0 11 -3 11
-11 -1 -8 -11 -9 -8 -4 15 16 76 28 108 46 126 12 12 18 23 15 26 -3 3 -14 -5
-25 -18 -24 -29 -27 -19 -6 21 10 18 23 30 36 30 11 0 17 4 14 10 -3 5 2 10
12 10 15 0 16 2 3 10 -18 11 -48 -7 -70 -43 -8 -14 -28 -47 -44 -73 -16 -27
-33 -62 -37 -79 l-7 -30 -1 35 c-1 36 -20 81 -21 50 0 -10 -6 -7 -19 9 -14 18
-20 21 -24 10 -3 -8 -6 -2 -6 13 -1 20 3 26 13 22 8 -3 17 -1 20 5 4 5 -3 9
-15 8 -11 -1 -25 -10 -30 -20 -15 -27 -39 -109 -39 -133 0 -20 -10 -22 -142
-38 -79 -9 -170 -16 -203 -16 -33 0 -77 -4 -97 -9 -24 -6 -56 -4 -90 4 -70 15
-188 8 -188 -12 0 -12 -18 -14 -97 -12 -54 1 -138 -1 -188 -5 -49 -3 -128 -8
-174 -11 -95 -5 -131 -26 -131 -76 0 -15 -7 -29 -15 -33 -29 -11 -17 -36 18
-36 18 0 39 -6 46 -13 10 -10 11 -8 5 7 -6 15 -4 17 7 10 8 -5 16 -9 19 -10 3
0 16 -3 30 -7 14 -3 39 -8 55 -11 30 -6 30 -6 6 7 -21 12 -21 15 -6 21 10 3
25 1 34 -6 43 -34 32 -45 -55 -54 -33 -3 -66 -8 -74 -11 -24 -7 81 -54 108
-48 15 4 22 1 22 -9 0 -7 14 -19 30 -26 17 -7 30 -18 30 -26 0 -10 -5 -10 -27
2 -16 7 -54 14 -85 14 -54 0 -58 -2 -58 -24 0 -22 -5 -24 -72 -30 -103 -10
-117 -15 -124 -42 -5 -19 -13 -24 -38 -24 -17 0 -38 4 -46 10 -12 8 -12 11 3
28 16 18 14 19 -66 31 -106 16 -162 37 -175 66 -8 17 -17 22 -31 18 -24 -6
-29 12 -5 21 9 3 37 6 63 6 26 0 56 6 67 14 18 14 18 15 -11 26 -16 6 -41 15
-55 21 -14 5 -58 11 -98 13 -40 2 -76 6 -79 10 -9 9 -88 7 -115 -3 -13 -4
-102 -5 -198 -2 -145 5 -175 9 -178 21 -3 20 91 70 133 71 17 0 48 6 70 13 32
9 40 17 41 36 3 107 4 112 19 107 8 -4 17 -2 20 3 4 6 15 10 26 10 12 0 19 7
19 19 0 11 5 23 10 26 17 11 0 25 -30 25 -29 0 -44 19 -34 45 4 8 17 15 29 15
13 0 27 5 30 10 3 6 -3 10 -13 10 -31 0 -36 29 -7 42 27 12 31 23 14 33 -7 5
-8 25 -4 57 6 40 4 49 -6 46 -30 -10 -68 -146 -70 -245 -1 -84 -17 -30 -18 64
-1 66 -3 72 -23 75 -16 2 -25 12 -29 33 -5 23 -7 25 -8 8 0 -13 -7 -23 -13
-23 -39 -1 -47 -24 -58 -174 -8 -105 -9 -151 -1 -160 11 -14 5 -26 -13 -26
-10 0 -11 116 -3 335 1 52 -12 85 -33 85 -18 0 -18 3 -7 28 6 15 15 29 19 32
3 3 3 20 0 39 l-7 34 -175 -4 c-207 -5 -416 -4 -668 3 -100 3 -185 1 -188 -3z
m821 -30 c42 3 85 -10 85 -25 0 -8 -3 -13 -8 -10 -4 2 -37 5 -72 7 -64 2 -90
11 -90 31 0 7 13 8 33 3 17 -4 41 -7 52 -6z m-248 -15 c-3 -3 -12 -4 -19 -1
-8 3 -5 6 6 6 11 1 17 -2 13 -5z m111 -1 c-10 -2 -28 -2 -40 0 -13 2 -5 4 17
4 22 1 32 -1 23 -4z m8 -54 c18 -17 35 -22 81 -21 48 1 54 -1 33 -9 -13 -6
-40 -7 -60 -4 -19 3 -93 7 -164 9 -93 3 -131 7 -137 17 -14 23 11 29 120 29
93 0 107 -2 127 -21z m239 12 c8 -13 -28 -31 -57 -30 l-23 2 23 4 c13 3 26 11
29 19 6 16 19 18 28 5z m-552 -58 c140 -5 159 -8 171 -25 13 -18 36 -24 99
-27 16 0 26 -5 23 -9 -3 -5 -45 -7 -93 -4 -66 3 -92 8 -103 21 -19 21 -166 28
-249 11 -30 -5 -58 -7 -63 -2 -13 13 22 54 41 47 9 -4 87 -9 174 -12z m470
-33 c26 0 47 -4 47 -10 0 -5 -7 -10 -15 -10 -8 0 -15 -8 -16 -17 0 -15 -3 -14
-16 5 -12 17 -25 22 -59 22 -41 0 -43 1 -32 20 11 17 14 18 28 5 10 -9 36 -15
63 -15z m-733 -11 c4 -5 86 -12 184 -16 177 -6 207 -16 89 -29 -44 -4 -68 -3
-78 6 -11 9 -15 9 -15 1 0 -8 -18 -10 -57 -7 -32 3 -97 5 -144 5 -77 1 -87 3
-92 20 -3 11 -3 22 0 24 9 9 108 6 113 -4z m-140 -18 c0 -29 -78 -41 -97 -15
-12 16 -11 20 4 26 10 3 35 7 56 7 30 1 37 -3 37 -18z m753 12 c-7 -2 -19 -2
-25 0 -7 3 -2 5 12 5 14 0 19 -2 13 -5z m165 -59 c-6 -5 -133 -32 -136 -29 -2
2 16 9 40 16 23 7 47 16 51 20 8 6 52 0 45 -7z m282 5 c0 -5 5 -7 10 -4 6 4
10 -5 10 -21 0 -22 -3 -25 -22 -20 -13 3 -28 6 -35 6 -15 0 -10 29 8 41 19 12
29 11 29 -2z m-743 -13 c-4 -12 -107 -26 -107 -14 0 5 -7 8 -15 8 -8 0 -15 -3
-15 -8 0 -4 -32 -8 -71 -10 -39 -1 -75 -4 -80 -7 -4 -3 -20 -3 -34 1 -40 10
-15 26 49 31 32 2 57 0 61 -6 9 -15 35 -14 35 2 0 9 25 12 90 13 62 1 89 -3
87 -10z m233 4 c0 -5 -3 -10 -7 -10 -5 0 -19 -3 -33 -6 l-25 -6 25 15 c31 18
40 20 40 7z m-627 -7 c9 -2 17 -11 17 -20 0 -14 -14 -15 -110 -10 -116 6 -157
17 -105 28 35 7 172 9 198 2z m778 -69 c55 3 60 0 48 -29 -6 -17 -8 -17 -8 -2
-1 14 -11 17 -70 17 l-69 0 21 25 c20 22 22 22 25 6 3 -16 11 -19 53 -17z
m-314 -7 c-12 -5 -45 -8 -74 -8 -33 0 -56 -6 -64 -15 -14 -16 -33 -19 -23 -3
3 6 1 15 -6 19 -7 4 -9 13 -5 20 5 9 26 11 69 8 34 -3 72 -2 86 2 32 8 47 -12
17 -23z m503 23 c0 -5 -4 -10 -10 -10 -5 0 -10 5 -10 10 0 6 5 10 10 10 6 0
10 -4 10 -10z m-827 -20 c-18 -4 -45 -5 -60 -2 -28 6 -28 6 -4 12 14 3 41 4
60 1 l36 -4 -32 -7z m121 14 c9 -3 14 -10 11 -15 -7 -10 -35 0 -35 12 0 11 3
11 24 3z m676 2 c0 -2 -13 -6 -29 -8 -17 -2 -28 -1 -25 4 5 8 54 12 54 4z
m-940 -16 c19 0 21 -3 10 -9 -22 -13 -143 -8 -147 6 -3 8 13 10 54 8 32 -2 69
-4 83 -5z m1160 2 c0 -4 -16 -8 -35 -9 -19 -1 -35 3 -35 8 0 5 16 9 35 9 19 0
35 -4 35 -8z m-493 -18 c-3 -3 -12 -4 -19 -1 -8 3 -5 6 6 6 11 1 17 -2 13 -5z
m-40 -10 c-3 -3 -12 -4 -19 -1 -8 3 -5 6 6 6 11 1 17 -2 13 -5z m-519 -23 c3
-8 0 -11 -6 -7 -6 3 -13 2 -17 -4 -11 -17 -25 -11 -25 11 0 15 5 20 22 17 12
-2 23 -9 26 -17z m-188 -19 c0 -4 -29 -13 -65 -20 -102 -19 -155 -15 -155 14
0 11 23 14 110 14 61 0 110 -3 110 -8z m925 -1 c11 -5 30 -5 42 0 20 8 22 6
11 -10 -7 -11 -19 -17 -32 -14 -16 4 -18 2 -7 -5 16 -11 6 -32 -15 -32 -8 0
-14 -7 -14 -15 0 -25 -44 -11 -50 16 -4 17 -15 26 -35 30 -28 5 -26 6 18 13
26 5 47 12 47 17 0 11 8 10 35 0z m2541 -28 c-11 -11 -17 4 -9 23 7 18 8 18
11 1 2 -10 1 -21 -2 -24z m-2996 -23 c0 -5 -4 -10 -9 -10 -6 0 -13 5 -16 10
-3 6 1 10 9 10 9 0 16 -4 16 -10z m737 -6 c-3 -3 -12 -4 -19 -1 -8 3 -5 6 6 6
11 1 17 -2 13 -5z m-987 -14 c0 -5 -4 -10 -10 -10 -5 0 -10 5 -10 10 0 6 5 10
10 10 6 0 10 -4 10 -10z m3881 -4 c5 3 9 2 8 -3 -3 -13 12 -43 22 -43 5 0 9
14 9 30 0 17 5 30 11 30 6 0 9 -13 7 -29 -1 -16 4 -36 11 -45 11 -14 11 -16
-2 -16 -9 0 -19 5 -23 11 -3 6 -15 9 -25 6 -11 -3 -20 -1 -20 4 -1 5 -2 13 -3
18 0 5 -4 13 -8 17 -5 4 -8 14 -7 23 0 11 2 12 6 3 2 -6 9 -10 14 -6z m-3917
-12 c3 -8 2 -12 -4 -9 -6 3 -10 10 -10 16 0 14 7 11 14 -7z m356 -4 c0 -15
-28 -31 -35 -20 -3 5 2 11 12 11 17 1 17 2 1 6 -10 2 -18 8 -18 13 0 4 9 6 20
3 11 -3 20 -9 20 -13z m-305 -33 c13 -3 9 -5 -12 -6 -31 -1 -41 8 -26 22 4 4
9 3 12 -2 3 -5 15 -11 26 -14z m490 13 c-3 -5 -14 -10 -23 -9 -14 0 -13 2 3 9
27 11 27 11 20 0z m88 3 c-7 -2 -19 -2 -25 0 -7 3 -2 5 12 5 14 0 19 -2 13 -5z
m-823 -14 c14 -1 3 -5 -25 -10 -54 -9 -89 -4 -79 13 4 6 22 8 43 4 20 -3 47
-6 61 -7z m414 -4 c7 -18 2 -19 -24 -2 -17 10 -22 9 -30 -3 -8 -13 -10 -12
-10 3 0 22 55 24 64 2z m236 0 c-7 -8 -22 -15 -34 -15 -20 0 -19 1 4 14 34 19
45 19 30 1z m-535 -15 c-11 -5 -49 -8 -85 -8 l-65 1 50 7 c28 4 66 7 85 8 28
0 31 -1 15 -8z m68 3 c-7 -2 -19 -2 -25 0 -7 3 -2 5 12 5 14 0 19 -2 13 -5z
m331 -17 c-7 -18 -25 -17 -31 1 -2 6 4 13 14 15 23 5 25 4 17 -16z m70 0 c-4
-9 -12 -15 -19 -12 -15 5 -25 -23 -25 -71 0 -67 27 -84 58 -35 34 55 66 92 79
92 17 0 17 -3 -6 -53 -10 -23 -21 -50 -24 -60 -7 -19 -14 -23 -69 -32 -39 -6
-61 -36 -71 -95 -4 -23 -4 -22 -6 5 -1 17 -8 39 -16 49 -42 55 25 241 78 220
11 -4 17 -1 17 7 0 7 2 10 5 7 3 -3 3 -13 -1 -22z m113 18 c-3 -3 -12 -4 -19
-1 -8 3 -5 6 6 6 11 1 17 -2 13 -5z m-27 -24 c0 -5 -11 -10 -25 -10 -14 0 -25
5 -25 10 0 6 11 10 25 10 14 0 25 -4 25 -10z m-240 -60 c0 -11 -5 -20 -11 -20
-5 0 -7 -4 -4 -10 3 -5 -3 -10 -14 -10 -11 0 -27 -7 -36 -16 -13 -13 -21 -14
-38 -6 -18 9 -19 11 -4 11 10 1 17 9 17 20 0 22 36 50 68 50 16 1 22 -5 22
-19z m1699 -22 c1 -8 -26 -4 -35 5 -4 4 -2 7 4 7 7 0 12 8 13 18 0 14 2 14 9
-3 5 -11 9 -23 9 -27z m-2549 -37 c14 -27 13 -98 -2 -105 -10 -3 -8 -9 5 -19
9 -8 17 -21 17 -29 0 -19 -29 -46 -31 -29 -2 20 -4 26 -16 46 -13 23 -10 78 5
117 8 20 8 28 -1 32 -9 3 -9 5 0 5 7 1 17 -8 23 -18z m1414 -60 c4 -5 -3 -7
-14 -4 -23 6 -26 13 -6 13 8 0 17 -4 20 -9z m731 -1 c8 -13 -5 -13 -25 0 -13
8 -13 10 2 10 9 0 20 -4 23 -10z m-125 -20 c0 -5 -4 -10 -9 -10 -6 0 -13 5
-16 10 -3 6 1 10 9 10 9 0 16 -4 16 -10z m1725 -131 c-4 -5 -2 -9 3 -9 6 0 12
7 16 15 6 17 66 21 66 5 0 -5 -11 -10 -25 -10 -14 0 -25 -4 -25 -10 0 -5 -11
-10 -25 -10 -19 0 -25 5 -25 21 0 11 5 17 10 14 6 -4 8 -11 5 -16z m-2065 -34
c-7 -8 -19 -15 -26 -15 -8 0 -11 6 -8 15 4 8 15 15 26 15 17 0 18 -3 8 -15z
m133 8 c-7 -2 -19 -2 -25 0 -7 3 -2 5 12 5 14 0 19 -2 13 -5z m-209 -50 c3 -4
28 -6 55 -4 41 2 51 -1 65 -21 16 -22 16 -23 -15 -30 -52 -10 -269 -10 -269 1
0 6 -17 13 -37 17 -91 16 -79 31 27 37 136 7 167 7 174 0z m919 -10 c-7 -2
-19 -2 -25 0 -7 3 -2 5 12 5 14 0 19 -2 13 -5z m-1196 -9 c-3 -3 -12 -4 -19
-1 -8 3 -5 6 6 6 11 1 17 -2 13 -5z m2663 -10 c-46 -20 -47 -21 -51 -9 -2 5
10 13 26 16 52 11 61 9 25 -7z m-3770 0 c-35 -7 -98 -9 -94 -2 3 5 29 7 57 7
29 -1 45 -3 37 -5z m135 -14 c2 -4 28 -3 56 1 31 5 59 4 68 -1 14 -8 14 -10 1
-11 -8 -1 -26 -3 -40 -5 -52 -8 -91 -6 -104 5 -7 6 -22 10 -32 10 -11 -1 -30
-1 -44 0 l-25 3 24 7 c28 8 89 2 96 -9z m3509 -5 c-26 -26 -59 -34 -52 -12 5
13 46 37 65 37 7 0 1 -11 -13 -25z m-2194 -39 c0 -3 -4 -8 -10 -11 -5 -3 -10
-1 -10 4 0 6 5 11 10 11 6 0 10 -2 10 -4z m705 -36 c-3 -5 -16 -10 -28 -10
-18 0 -19 2 -7 10 20 13 43 13 35 0z m122 -6 c-3 -3 -12 -4 -19 -1 -8 3 -5 6
6 6 11 1 17 -2 13 -5z m-1116 -20 c12 -14 11 -16 -5 -13 -11 2 -21 10 -24 17
-5 17 13 15 29 -4z m49 2 c0 -3 -4 -8 -10 -11 -5 -3 -10 -1 -10 4 0 6 5 11 10
11 6 0 10 -2 10 -4z m1312 -36 c3 -16 1 -30 -4 -30 -4 0 -8 7 -8 16 0 14 -3
14 -15 4 -21 -17 -19 -4 3 19 9 11 18 20 18 20 1 1 4 -12 6 -29z m-1445 14
c-3 -3 -12 -4 -19 -1 -8 3 -5 6 6 6 11 1 17 -2 13 -5z m1801 -24 c-2 -24 -7
-30 -26 -30 -13 0 -20 4 -17 10 3 6 13 10 21 10 8 0 14 9 14 20 0 11 2 20 5
20 3 0 4 -13 3 -30z m-308 1 c0 -17 -18 -21 -24 -6 -3 9 0 15 9 15 8 0 15 -4
15 -9z m-220 -11 c0 -5 -2 -10 -4 -10 -3 0 -8 5 -11 10 -3 6 -1 10 4 10 6 0
11 -4 11 -10z m-1987 -7 c-18 -2 -48 -2 -65 0 -18 2 -4 4 32 4 36 0 50 -2 33
-4z m3007 -3 c0 -5 -9 -10 -19 -10 -11 0 -23 5 -26 10 -4 6 5 10 19 10 14 0
26 -4 26 -10z m-2178 -56 c-12 -8 -27 -12 -33 -8 -14 8 8 24 36 24 18 0 18 -1
-3 -16z m-149 -1 c-7 -2 -21 -2 -30 0 -10 3 -4 5 12 5 17 0 24 -2 18 -5z m444
1 c-3 -3 -12 -4 -19 -1 -8 3 -5 6 6 6 11 1 17 -2 13 -5z m53 -4 c0 -5 -4 -10
-10 -10 -5 0 -10 5 -10 10 0 6 5 10 10 10 6 0 10 -4 10 -10z m-1101 -6 c47
-10 37 -25 -11 -18 -29 4 -38 2 -29 -4 14 -10 5 -19 -19 -17 -8 1 -23 3 -32 3
-24 3 -12 30 15 35 37 7 43 7 76 1z m991 -10 c0 -2 -26 -3 -57 -3 -54 2 -55 2
-18 8 38 6 75 3 75 -5z m-883 -10 c-3 -3 -12 -4 -19 -1 -8 3 -5 6 6 6 11 1 17
-2 13 -5z m1646 -11 c-7 -2 -21 -2 -30 0 -10 3 -4 5 12 5 17 0 24 -2 18 -5z
m-1643 -23 c0 -5 -2 -10 -4 -10 -3 0 -8 5 -11 10 -3 6 -1 10 4 10 6 0 11 -4
11 -10z m1933 -40 c-3 -11 -9 -18 -13 -15 -5 3 -6 14 -3 25 3 11 9 18 13 15 5
-3 6 -14 3 -25z m-1053 0 c0 -12 -37 -12 -65 0 -15 7 -10 9 23 9 23 1 42 -3
42 -9z m840 -40 c0 -5 -3 -10 -7 -10 -5 0 -19 -3 -32 -7 -17 -4 -22 -3 -17 6
4 6 11 9 16 6 5 -3 11 -1 15 5 8 13 25 13 25 0z m-595 -29 c25 5 18 14 -8 10
-5 -1 -6 2 -4 6 3 5 34 9 69 11 60 2 62 1 38 -13 -25 -14 -25 -14 15 -15 33
-1 37 -2 22 -11 -11 -6 -32 -8 -48 -5 -22 4 -32 1 -41 -14 -10 -15 -23 -20
-53 -19 -22 0 -34 3 -27 6 28 11 10 25 -27 20 -22 -2 -44 0 -50 6 -7 7 -15 6
-26 -3 -8 -7 -19 -10 -22 -6 -12 11 19 26 55 26 21 0 35 6 39 16 5 15 8 14 22
-3 12 -15 23 -18 46 -12z m221 14 c16 -13 17 -16 4 -25 -20 -13 -26 -13 -44 5
-8 8 -19 15 -25 15 -6 0 -11 5 -11 10 0 15 54 12 76 -5z m227 -2 c-7 -2 -19
-2 -25 0 -7 3 -2 5 12 5 14 0 19 -2 13 -5z m-1493 -13 c0 -5 -5 -10 -11 -10
-5 0 -7 5 -4 10 3 6 8 10 11 10 2 0 4 -4 4 -10z m-3 -36 c-3 -3 -12 -4 -19 -1
-8 3 -5 6 6 6 11 1 17 -2 13 -5z m893 -4 c19 12 50 13 50 1 0 -5 -16 -12 -36
-15 -19 -4 -38 -14 -41 -22 -3 -7 -9 -14 -14 -14 -8 0 -8 24 0 59 1 2 7 -1 14
-7 8 -7 18 -7 27 -2z m-345 -20 c-7 -12 -65 -14 -65 -2 0 4 16 8 36 10 21 1
33 -2 29 -8z m398 -7 c-7 -2 -19 -2 -25 0 -7 3 -2 5 12 5 14 0 19 -2 13 -5z
m-400 -20 c-13 -2 -33 -2 -45 0 -13 2 -3 4 22 4 25 0 35 -2 23 -4z m-96 -14
c-14 -8 -22 -8 -30 0 -8 8 -3 11 19 11 25 -1 27 -2 11 -11z"/>
<path d="M2208 1533 c6 -2 18 -2 25 0 6 3 1 5 -13 5 -14 0 -19 -2 -12 -5z"/>
<path d="M2860 1355 c0 -8 3 -15 6 -15 3 0 12 7 20 15 14 13 13 15 -5 15 -12
0 -21 -6 -21 -15z"/>
<path d="M3450 360 c0 -5 5 -10 10 -10 6 0 10 5 10 10 0 6 -4 10 -10 10 -5 0
-10 -4 -10 -10z"/>
<path d="M5460 1810 c0 -5 5 -10 10 -10 6 0 10 5 10 10 0 6 -4 10 -10 10 -5 0
-10 -4 -10 -10z"/>
<path d="M6160 1781 c0 -25 6 -27 13 -6 4 8 2 17 -3 20 -6 4 -10 -3 -10 -14z"/>
<path d="M1980 1770 c17 -11 100 -14 100 -2 0 4 -26 8 -57 10 -42 2 -54 0 -43
-8z"/>
<path d="M1888 1763 c7 -3 16 -2 19 1 4 3 -2 6 -13 5 -11 0 -14 -3 -6 -6z"/>
<path d="M2338 1758 c17 -8 26 -8 34 0 9 9 4 12 -22 11 -33 0 -34 -1 -12 -11z"/>
<path d="M1595 1750 c-3 -6 1 -13 10 -16 19 -8 125 5 125 14 0 11 -128 13
-135 2z m73 -7 c-10 -2 -28 -2 -40 0 -13 2 -5 4 17 4 22 1 32 -1 23 -4z"/>
<path d="M1770 1750 c-11 -7 -7 -10 17 -10 17 0 35 5 38 10 8 13 -35 13 -55 0z"/>
<path d="M6287 1721 c3 -14 -3 -21 -24 -29 -26 -10 -25 -10 21 -11 44 -1 48 1
31 13 -11 8 -16 19 -12 30 4 10 1 16 -7 16 -9 0 -12 -7 -9 -19z"/>
<path d="M2110 1700 c-8 -5 -24 -7 -35 -4 -16 4 -17 3 -5 -5 22 -16 57 -13 64
4 6 17 -2 19 -24 5z"/>
<path d="M1995 1690 c3 -5 13 -10 21 -10 8 0 12 5 9 10 -3 6 -13 10 -21 10 -8
0 -12 -4 -9 -10z"/>
<path d="M5352 1691 c2 -7 7 -12 11 -12 12 1 9 15 -3 20 -7 2 -11 -2 -8 -8z"/>
<path d="M1580 1680 c0 -5 5 -10 10 -10 6 0 10 5 10 10 0 6 -4 10 -10 10 -5 0
-10 -4 -10 -10z"/>
<path d="M1700 1686 c0 -9 30 -14 35 -6 4 6 -3 10 -14 10 -12 0 -21 -2 -21 -4z"/>
<path d="M4088 1665 c-10 -23 -10 -29 0 -33 25 -8 11 -22 -23 -22 -34 0 -49
-20 -26 -34 5 -3 7 -15 4 -26 -3 -11 -1 -20 4 -20 16 0 103 60 109 75 4 8 17
15 30 15 12 0 27 7 32 16 5 8 17 17 28 18 28 4 23 21 -6 22 -14 1 -51 5 -82 9
-56 7 -57 7 -70 -20z"/>
<path d="M5911 1686 c11 -9 69 -15 64 -6 -3 6 -20 10 -37 10 -17 0 -29 -2 -27
-4z"/>
<path d="M6016 1680 c6 -6 21 -6 39 -1 30 9 30 9 -9 10 -26 1 -37 -2 -30 -9z"/>
<path d="M6425 1680 c4 -6 11 -8 16 -5 14 9 11 15 -7 15 -8 0 -12 -5 -9 -10z"/>
<path d="M1310 1660 c-13 -9 -13 -10 0 -9 8 0 24 4 35 9 l20 9 -20 0 c-11 0
-27 -4 -35 -9z"/>
<path d="M1380 1660 c0 -5 7 -10 16 -10 8 0 12 5 9 10 -3 6 -10 10 -16 10 -5
0 -9 -4 -9 -10z"/>
<path d="M1642 1645 c-25 -25 -46 -115 -24 -101 7 4 12 18 12 32 0 14 12 41
26 60 30 38 21 44 -14 9z"/>
<path d="M6190 1655 c-1 -5 -3 -16 -4 -23 0 -7 -8 -17 -16 -22 -11 -7 -6 -10
20 -10 19 0 30 4 24 8 -7 4 -14 18 -17 32 -2 14 -5 21 -7 15z"/>
<path d="M1305 1630 c-3 -5 -1 -10 4 -10 6 0 11 5 11 10 0 6 -2 10 -4 10 -3 0
-8 -4 -11 -10z"/>
<path d="M4245 1630 c-3 -5 -1 -10 4 -10 6 0 11 5 11 10 0 6 -2 10 -4 10 -3 0
-8 -4 -11 -10z"/>
<path d="M5715 1610 c-13 -6 -15 -9 -5 -9 8 0 22 4 30 9 18 12 2 12 -25 0z"/>
<path d="M5860 1611 c-14 -5 -41 -7 -60 -5 -34 3 -34 3 -5 -5 33 -9 85 -3 100
10 11 11 1 10 -35 0z"/>
<path d="M5963 1613 c-24 -2 -43 -9 -43 -15 0 -6 10 -8 23 -4 12 3 34 6 50 6
15 0 27 5 27 10 0 6 -3 9 -7 8 -5 -1 -27 -3 -50 -5z"/>
<path d="M6035 1610 c3 -5 13 -10 21 -10 8 0 12 5 9 10 -3 6 -13 10 -21 10 -8
0 -12 -4 -9 -10z"/>
<path d="M1300 1601 c0 -17 18 -21 24 -6 3 9 0 15 -9 15 -8 0 -15 -4 -15 -9z"/>
<path d="M6324 1595 c-8 -21 2 -45 20 -45 9 0 13 10 12 30 -1 31 -22 41 -32
15z"/>
<path d="M1015 1551 c-13 -30 -15 -45 -7 -53 8 -8 14 1 22 31 16 59 8 71 -15
22z"/>
<path d="M5748 1583 c6 -2 18 -2 25 0 6 3 1 5 -13 5 -14 0 -19 -2 -12 -5z"/>
<path d="M1702 1550 c0 -14 2 -19 5 -12 2 6 2 18 0 25 -3 6 -5 1 -5 -13z"/>
<path d="M1130 1554 c0 -5 6 -19 14 -29 13 -18 14 -18 21 4 4 12 4 25 1 28 -3
4 -6 -2 -6 -12 0 -18 -1 -18 -15 1 -8 10 -15 14 -15 8z"/>
<path d="M1395 1540 c-3 -5 -1 -10 4 -10 6 0 11 5 11 10 0 6 -2 10 -4 10 -3 0
-8 -4 -11 -10z"/>
<path d="M5720 1540 c-47 -5 -46 -12 5 -24 16 -4 33 -12 36 -18 4 -6 15 -2 28
11 22 22 37 28 26 11 -6 -9 8 -14 29 -11 4 1 15 -4 22 -10 11 -9 18 -9 26 -1
7 7 31 12 55 12 24 0 43 5 43 10 0 6 -33 10 -77 10 -90 1 -124 3 -138 10 -5 3
-30 3 -55 0z m55 -28 c-3 -3 -11 0 -18 7 -9 10 -8 11 6 5 10 -3 15 -9 12 -12z"/>
<path d="M920 1492 c0 -35 5 -52 20 -65 11 -9 20 -13 20 -7 0 5 -4 12 -10 15
-5 3 -10 28 -10 56 0 27 -4 49 -10 49 -5 0 -10 -21 -10 -48z"/>
<path d="M1250 1524 c0 -8 5 -12 10 -9 6 4 8 11 5 16 -9 14 -15 11 -15 -7z"/>
<path d="M6013 1533 c-7 -2 -13 -9 -13 -15 0 -6 6 -6 15 2 8 7 22 10 30 6 8
-3 15 -1 15 4 0 10 -26 12 -47 3z"/>
<path d="M6168 1523 c6 -2 18 -2 25 0 6 3 1 5 -13 5 -14 0 -19 -2 -12 -5z"/>
<path d="M1127 1430 c4 -41 7 -90 7 -107 0 -18 3 -33 8 -33 15 0 9 156 -8 186
-15 28 -15 25 -7 -46z"/>
<path d="M1096 1459 c-8 -42 0 -50 9 -9 4 17 5 34 2 36 -2 3 -7 -10 -11 -27z"/>
<path d="M1521 1476 c9 -8 98 -13 93 -5 -3 5 -26 9 -51 9 -26 0 -44 -2 -42 -4z"/>
<path d="M3644 1449 c-7 -11 14 -39 28 -39 6 0 7 7 4 16 -3 8 -2 12 4 9 6 -3
10 -2 10 3 0 13 -39 22 -46 11z"/>
<path d="M1620 1439 c0 -5 -5 -7 -12 -3 -8 5 -9 2 -5 -9 7 -18 -18 -37 -45
-34 -9 1 -17 -2 -17 -8 0 -5 8 -9 17 -8 9 1 21 -6 26 -15 8 -14 10 -14 17 3 5
12 6 4 2 -20 -3 -22 -11 -43 -17 -47 -8 -5 -8 -10 0 -18 9 -9 14 -3 22 19 13
38 27 151 18 151 -3 0 -6 -5 -6 -11z"/>
<path d="M4153 1403 c1 -51 2 -53 29 -53 15 0 28 5 28 10 0 6 -8 10 -19 10
-13 0 -21 12 -29 43 l-10 42 1 -52z"/>
<path d="M1665 1429 c-11 -17 1 -21 15 -4 8 9 8 15 2 15 -6 0 -14 -5 -17 -11z"/>
<path d="M1346 1413 c-8 -20 1 -33 25 -33 15 0 20 6 17 22 -4 25 -34 33 -42
11z"/>
<path d="M1432 1400 c0 -14 2 -19 5 -12 2 6 2 18 0 25 -3 6 -5 1 -5 -13z"/>
<path d="M4360 1410 c0 -5 5 -10 11 -10 5 0 7 5 4 10 -3 6 -8 10 -11 10 -2 0
-4 -4 -4 -10z"/>
<path d="M4528 1403 c7 -3 16 -2 19 1 4 3 -2 6 -13 5 -11 0 -14 -3 -6 -6z"/>
<path d="M1477 1393 c-4 -3 -7 -11 -7 -17 0 -6 5 -5 12 2 6 6 9 14 7 17 -3 3
-9 2 -12 -2z"/>
<path d="M4026 1359 c-9 -48 -7 -119 4 -119 6 0 10 7 10 15 0 8 7 34 15 59 8
24 12 51 9 60 -10 27 -31 18 -38 -15z"/>
<path d="M4480 1378 c0 -4 -26 -5 -57 -2 -41 3 -52 2 -37 -5 21 -9 72 -14 126
-12 18 1 26 6 23 14 -5 12 -55 17 -55 5z"/>
<path d="M3577 1351 c-26 -45 -22 -50 31 -45 87 9 92 12 92 44 0 17 -4 30 -9
30 -5 0 -7 -10 -5 -22 2 -13 2 -17 -2 -10 -3 6 -15 12 -25 12 -11 0 -17 5 -14
10 4 6 -6 10 -22 10 -21 0 -33 -8 -46 -29z m43 -20 c0 -5 -7 -11 -15 -15 -9
-3 -15 0 -15 9 0 8 7 15 15 15 8 0 15 -4 15 -9z"/>
<path d="M3783 1335 c0 -22 2 -30 4 -17 2 12 2 30 0 40 -3 9 -5 -1 -4 -23z"/>
<path d="M4248 1363 c6 -2 18 -2 25 0 6 3 1 5 -13 5 -14 0 -19 -2 -12 -5z"/>
<path d="M1191 1340 c0 -14 4 -34 9 -45 8 -18 9 -18 9 5 0 14 -4 34 -9 45 -8
18 -9 18 -9 -5z"/>
<path d="M1025 1337 c-8 -18 11 -57 26 -57 7 0 9 10 4 28 -9 36 -23 50 -30 29z"/>
<path d="M3470 1330 c0 -19 3 -21 12 -12 9 9 9 15 0 24 -9 9 -12 7 -12 -12z"/>
<path d="M1650 1306 c0 -9 5 -16 10 -16 6 0 10 4 10 9 0 6 -4 13 -10 16 -5 3
-10 -1 -10 -9z"/>
<path d="M3517 1314 c-18 -18 6 -144 28 -144 6 0 -5 107 -14 133 -4 10 -10 15
-14 11z"/>
<path d="M3876 1313 c-25 -26 -49 -133 -28 -133 4 0 15 27 26 60 18 58 19 89
2 73z"/>
<path d="M1668 1273 c6 -2 18 -2 25 0 6 3 1 5 -13 5 -14 0 -19 -2 -12 -5z"/>
<path d="M1281 1254 c0 -11 3 -14 6 -6 3 7 2 16 -1 19 -3 4 -6 -2 -5 -13z"/>
<path d="M3290 1260 c0 -5 7 -10 15 -10 8 0 15 5 15 10 0 6 -7 10 -15 10 -8 0
-15 -4 -15 -10z"/>
<path d="M3350 1245 c0 -11 12 -15 44 -15 49 0 76 7 76 21 0 5 -27 9 -60 9
-47 0 -60 -3 -60 -15z"/>
<path d="M1200 1240 c0 -5 5 -10 10 -10 6 0 10 5 10 10 0 6 -4 10 -10 10 -5 0
-10 -4 -10 -10z"/>
<path d="M1281 1194 c0 -11 3 -14 6 -6 3 7 2 16 -1 19 -3 4 -6 -2 -5 -13z"/>
<path d="M4000 1123 c0 -10 4 -14 8 -8 4 6 11 13 16 18 5 4 2 7 -7 7 -10 0
-17 -8 -17 -17z"/>
<path d="M4008 1053 c7 -3 16 -2 19 1 4 3 -2 6 -13 5 -11 0 -14 -3 -6 -6z"/>
<path d="M4385 480 c3 -5 8 -10 11 -10 2 0 4 5 4 10 0 6 -5 10 -11 10 -5 0 -7
-4 -4 -10z"/>
<path d="M4784 419 c-2 -4 -36 -10 -75 -14 -38 -4 -68 -9 -65 -12 4 -4 50 0
321 27 59 6 50 7 -53 6 -68 0 -126 -4 -128 -7z"/>
<path d="M5058 423 c7 -3 16 -2 19 1 4 3 -2 6 -13 5 -11 0 -14 -3 -6 -6z"/>
<path d="M4493 413 c9 -2 25 -2 35 0 9 3 1 5 -18 5 -19 0 -27 -2 -17 -5z"/>
<path d="M4593 403 c9 -2 23 -2 30 0 6 3 -1 5 -18 5 -16 0 -22 -2 -12 -5z"/>
<path d="M3030 250 c-12 -7 -12 -12 -2 -22 9 -9 12 -9 12 0 0 7 7 12 16 12 8
0 12 5 9 10 -8 12 -16 12 -35 0z"/>
<path d="M2740 210 c0 -5 5 -10 10 -10 6 0 10 5 10 10 0 6 -4 10 -10 10 -5 0
-10 -4 -10 -10z"/>
</g>
</svg>
